<?xml version="1.0" encoding="UTF-8"?>
<svg version="1.1" xmlns="http://www.w3.org/2000/svg" width="1536" height="1024">
<path d="M0 0 C506.88 0 1013.76 0 1536 0 C1536 337.92 1536 675.84 1536 1024 C1029.12 1024 522.24 1024 0 1024 C0 686.08 0 348.16 0 0 Z " fill="#FEFEFE" transform="translate(0,0)"/>
<path d="M0 0 C1.50426769 -0.00307895 1.50426769 -0.00307895 3.03892463 -0.0062201 C6.4143408 -0.01189463 9.78971623 -0.01043228 13.16513634 -0.00901413 C15.60364465 -0.0115975 18.04215254 -0.01461058 20.48065984 -0.01801753 C26.48929308 -0.02524658 32.49791258 -0.02779032 38.50654882 -0.02834659 C45.70357383 -0.02926076 52.90059063 -0.03592987 60.09761211 -0.04269341 C77.49211159 -0.05875012 94.88661018 -0.06465626 112.28111574 -0.06944216 C120.51033212 -0.07177837 128.7395478 -0.07538105 136.96876364 -0.07913754 C165.13998731 -0.09197257 193.3112106 -0.10269194 221.48243713 -0.10614014 C223.25071632 -0.10636177 225.0189955 -0.10658355 226.78727468 -0.10680549 C228.55981518 -0.10702613 230.33235569 -0.10724661 232.10489619 -0.10746694 C235.66089543 -0.10790949 239.21689467 -0.1083566 242.77289391 -0.10880661 C244.09541458 -0.1089707 244.09541458 -0.1089707 245.44465284 -0.1091381 C274.03376006 -0.1127688 302.62284193 -0.12868961 331.21193944 -0.15199697 C361.44036102 -0.17659573 391.66876811 -0.19031299 421.89719999 -0.19150805 C425.21583518 -0.19167951 428.53447036 -0.19189494 431.85310555 -0.19214249 C433.07881105 -0.19222614 433.07881105 -0.19222614 434.32927829 -0.19231148 C447.47629036 -0.19346187 460.62327639 -0.20448277 473.77027967 -0.21902954 C486.98597182 -0.23339941 500.20163061 -0.23662875 513.41732843 -0.22858956 C521.26666462 -0.22413568 529.1158931 -0.22798427 536.96521512 -0.24382807 C542.82935243 -0.25473663 548.69340901 -0.24992952 554.55754869 -0.2390562 C556.92768976 -0.23709494 559.29784161 -0.24019736 561.66796751 -0.24890056 C581.09739302 -0.31572417 599.20730732 1.10210122 614.14740562 15.09627151 C626.12454513 27.85804058 633.16348618 44.70702303 633.18117714 62.22814369 C633.18425609 63.26968779 633.18425609 63.26968779 633.18739724 64.33227319 C633.19305043 66.65835822 633.19161207 68.98438372 633.19019127 71.3104744 C633.19277589 72.99541848 633.19578932 74.68036196 633.19919467 76.36530459 C633.2072569 80.99550701 633.20905381 85.62569392 633.20979214 90.25590253 C633.2116441 95.250019 633.21919229 100.24412746 633.22592735 105.23823929 C633.23950686 116.16009648 633.24553513 127.08194999 633.24993801 138.00381422 C633.25270173 144.82664283 633.25693939 151.64947002 633.26144218 158.47229767 C633.27363559 177.37063317 633.28393396 196.26896755 633.28731728 215.1673069 C633.28753684 216.37679179 633.28775641 217.58627669 633.28798263 218.83241264 C633.28820091 220.04476536 633.28841918 221.25711809 633.28864408 222.50620878 C633.28908754 224.96282474 633.2895341 227.41944071 633.28998375 229.87605667 C633.29020518 231.09461875 633.29042661 232.31318083 633.29065475 233.56866904 C633.29460008 253.2998009 633.31204572 273.03089578 633.33534327 292.76201336 C633.35908125 313.03018446 633.37152028 333.29833702 633.37268519 353.56652224 C633.37360071 364.941972 633.37932172 376.3173736 633.39750481 387.69281006 C633.41293899 397.38259084 633.4180068 407.07230857 633.4097667 416.76209931 C633.40587161 421.70177066 633.40673375 426.64131518 633.42082405 431.58097076 C633.43363191 436.1127113 633.43230554 440.64423058 633.42023334 445.17597111 C633.41828816 446.80594665 633.42129949 448.43593824 633.4300777 450.06589131 C633.49775728 463.49478262 632.92725809 477.63599627 626.23724937 489.63142776 C625.70841148 490.62819534 625.70841148 490.62819534 625.16889 491.64509964 C622.54311417 496.49158606 619.72069582 501.00161302 616.04974937 505.13142776 C615.50318687 505.79271683 614.95662437 506.45400589 614.39349937 507.13533401 C605.88886682 516.63097248 592.49833515 522.3234361 579.85782528 523.30092978 C573.5277644 523.57347309 567.19357121 523.50742949 560.85931969 523.47200394 C558.72949803 523.47115654 556.5996755 523.471635 554.46985435 523.47333145 C548.71860447 523.47418843 542.96754418 523.45661092 537.21633816 523.43560958 C531.19457091 523.41679304 525.17279881 523.41508842 519.1510067 523.41153336 C507.76158956 523.40222749 496.37225932 523.37763346 484.98288035 523.34748489 C472.01067249 523.31389543 459.03846037 523.29744344 446.06621981 523.28239858 C419.39401491 523.25108261 392.72188702 523.19835053 366.04974937 523.13142776 C366.52141761 526.34565231 366.99714252 529.55926402 367.4735775 532.77278519 C367.67288872 534.13152378 367.67288872 534.13152378 367.87622643 535.51771164 C368.77955597 541.59277587 369.81744813 547.5428573 371.54974937 553.44392776 C371.79330162 554.28657181 372.03685387 555.12921585 372.28778648 555.99739456 C375.62233511 566.8284768 380.58075148 577.2194884 386.04974937 587.13142776 C386.32451607 587.81323105 386.59928276 588.49503433 386.88237572 589.19749832 C388.04363123 591.65467042 389.04357219 593.28505788 391.04974937 595.13142776 C395.29139146 596.28071718 399.42666083 596.10697512 403.79584312 595.99080276 C405.6616478 595.99288742 405.6616478 595.99288742 407.56514549 595.99501419 C410.8665573 595.99475538 414.16542262 595.96242009 417.46637535 595.91115189 C422.11031085 595.84284634 426.75420291 595.8158569 431.39864159 595.81068802 C433.86845548 595.80585259 436.33833832 595.78008443 438.80766869 595.7309761 C445.19866537 595.69629359 449.23594513 595.73459927 454.04974937 600.13142776 C456.97301405 603.45790136 457.96914138 606.04321977 458.29974937 610.50642776 C458.02446467 614.49805595 457.60149273 616.08579859 455.04974937 619.13142776 C448.6579583 623.94580712 442.79860157 623.6959149 434.99274254 623.63936234 C433.65937256 623.64397479 432.32600768 623.65033003 430.99265337 623.65827131 C427.3391356 623.6749408 423.68603677 623.66672939 420.03251767 623.65432644 C416.08833775 623.64526841 412.14422937 623.65924939 408.20006371 623.67024612 C400.47759331 623.68802793 392.75527846 623.68419289 385.03280199 623.67259556 C378.75631838 623.66356018 372.47987836 623.66233769 366.20339012 623.66669083 C365.30991793 623.66730376 364.41644574 623.66791669 363.49589863 623.6685482 C361.68079848 623.6698271 359.86569833 623.67112396 358.0505982 623.67243856 C341.03239488 623.68384337 324.01427775 623.67073222 306.99608856 623.6492371 C292.39527999 623.6313662 277.79459862 623.63447034 263.19379234 623.65291214 C246.23628059 623.67432061 229.27884439 623.68274474 212.32132101 623.67046309 C210.51291689 623.6691889 208.70451277 623.66793141 206.89610863 623.66669083 C206.00635091 623.66607372 205.11659319 623.66545662 204.19987312 623.66482082 C197.9312923 623.66136785 191.66275942 623.66719513 185.39418602 623.67660904 C177.75433764 623.68783014 170.11465363 623.68478668 162.47482407 623.66348606 C158.57720336 623.65297708 154.67985666 623.64885106 150.78223801 623.66208267 C147.21311025 623.67401584 143.6445101 623.66742945 140.0754301 623.64617246 C138.17515278 623.63959894 136.27483875 623.65263437 134.37459993 623.66640139 C127.72923183 623.6053154 123.40069266 623.21398875 118.04974937 619.13142776 C115.30875744 615.2409876 114.49651208 611.76319326 114.70209312 607.08845901 C115.48148081 602.70111937 117.81610433 600.00178526 121.36859703 597.49544144 C126.95911746 595.42393078 132.40606761 595.65025728 138.32318687 595.61970901 C139.60206779 595.60175781 140.88094872 595.58380661 142.1985836 595.56531143 C145.58189898 595.52041366 148.96485497 595.48806497 152.34833336 595.4618721 C155.8075314 595.4319778 159.26650286 595.38547822 162.72553062 595.34041214 C169.50016529 595.25550444 176.27481514 595.18714504 183.04974937 595.13142776 C189.54899297 582.41277087 189.54899297 582.41277087 195.23724937 569.31892776 C195.56620201 568.48836868 195.89515465 567.6578096 196.23407555 566.80208206 C200.68155314 555.25303982 203.49852905 543.47975779 205.61884117 531.31184769 C205.75693954 530.52409706 205.89503792 529.73634644 206.03732109 528.92472458 C206.37569674 526.99378306 206.7128464 525.06262677 207.04974937 523.13142776 C205.95552382 523.13419314 204.86129827 523.13695852 203.73391438 523.1398077 C177.06575289 523.20651047 150.39760227 523.2557544 123.72937489 523.28686428 C110.83263681 523.30231001 97.93595395 523.32335561 85.03925133 523.35774612 C73.79388788 523.38771877 62.54856444 523.40701943 51.30316216 523.41369325 C45.35299891 523.41759219 39.40295009 523.42670728 33.45282364 523.44861794 C27.8427318 523.46910744 22.23280064 523.47523652 16.62267494 523.47075081 C14.57295608 523.47157046 12.52323137 523.47746131 10.47354507 523.48904419 C-10.26385089 523.60040104 -29.10560768 521.73151845 -44.77446938 506.49861526 C-58.69860318 491.34955766 -62.26027515 474.11165221 -62.21094704 454.26771927 C-62.21396992 452.54504854 -62.21786008 450.82237916 -62.2225396 449.09971213 C-62.23281089 444.37926318 -62.23063998 439.65889025 -62.22635901 434.93843508 C-62.22389019 429.84217417 -62.23290795 424.74593149 -62.2403965 419.64967728 C-62.2531416 409.67022901 -62.25493739 399.69080765 -62.25259624 389.71135262 C-62.25081255 381.59811687 -62.25256382 373.48488928 -62.25682068 365.37165451 C-62.25741587 364.21652632 -62.25801106 363.06139813 -62.25862428 361.87126605 C-62.25983605 359.52452836 -62.26105018 357.17779068 -62.26226666 354.83105299 C-62.27314167 332.8258175 -62.27098001 310.82059734 -62.26488181 288.81536099 C-62.25971388 268.69439932 -62.27096492 248.57348608 -62.28998003 228.45253399 C-62.3093634 207.78312489 -62.31761348 187.11373869 -62.31385678 166.44432044 C-62.31194534 154.84377305 -62.31442663 143.24326687 -62.32857132 131.6427269 C-62.3404925 121.76591411 -62.34188178 111.88916789 -62.32978115 102.01235417 C-62.32389741 96.97582511 -62.32277911 91.93941778 -62.33478355 86.90289688 C-62.34565893 82.28630953 -62.3425193 77.66994529 -62.32852187 73.0533683 C-62.32587948 71.38921794 -62.32822699 69.72505001 -62.33625773 68.06091693 C-62.42530879 48.22004015 -58.14500033 31.71039626 -43.95025063 17.13142776 C-31.20502969 5.43561413 -17.37127177 -0.03303097 0 0 Z " fill="#FEFEFE" transform="translate(452.95025062561035,189.86857223510742)"/>
<path d="M0 0 C1.50426769 -0.00307895 1.50426769 -0.00307895 3.03892463 -0.0062201 C6.4143408 -0.01189463 9.78971623 -0.01043228 13.16513634 -0.00901413 C15.60364465 -0.0115975 18.04215254 -0.01461058 20.48065984 -0.01801753 C26.48929308 -0.02524658 32.49791258 -0.02779032 38.50654882 -0.02834659 C45.70357383 -0.02926076 52.90059063 -0.03592987 60.09761211 -0.04269341 C77.49211159 -0.05875012 94.88661018 -0.06465626 112.28111574 -0.06944216 C120.51033212 -0.07177837 128.7395478 -0.07538105 136.96876364 -0.07913754 C165.13998731 -0.09197257 193.3112106 -0.10269194 221.48243713 -0.10614014 C223.25071632 -0.10636177 225.0189955 -0.10658355 226.78727468 -0.10680549 C228.55981518 -0.10702613 230.33235569 -0.10724661 232.10489619 -0.10746694 C235.66089543 -0.10790949 239.21689467 -0.1083566 242.77289391 -0.10880661 C244.09541458 -0.1089707 244.09541458 -0.1089707 245.44465284 -0.1091381 C274.03376006 -0.1127688 302.62284193 -0.12868961 331.21193944 -0.15199697 C361.44036102 -0.17659573 391.66876811 -0.19031299 421.89719999 -0.19150805 C425.21583518 -0.19167951 428.53447036 -0.19189494 431.85310555 -0.19214249 C433.07881105 -0.19222614 433.07881105 -0.19222614 434.32927829 -0.19231148 C447.47629036 -0.19346187 460.62327639 -0.20448277 473.77027967 -0.21902954 C486.98597182 -0.23339941 500.20163061 -0.23662875 513.41732843 -0.22858956 C521.26666462 -0.22413568 529.1158931 -0.22798427 536.96521512 -0.24382807 C542.82935243 -0.25473663 548.69340901 -0.24992952 554.55754869 -0.2390562 C556.92768976 -0.23709494 559.29784161 -0.24019736 561.66796751 -0.24890056 C581.09739302 -0.31572417 599.20730732 1.10210122 614.14740562 15.09627151 C626.12454513 27.85804058 633.16348618 44.70702303 633.18117714 62.22814369 C633.18425609 63.26968779 633.18425609 63.26968779 633.18739724 64.33227319 C633.19305043 66.65835822 633.19161207 68.98438372 633.19019127 71.3104744 C633.19277589 72.99541848 633.19578932 74.68036196 633.19919467 76.36530459 C633.2072569 80.99550701 633.20905381 85.62569392 633.20979214 90.25590253 C633.2116441 95.250019 633.21919229 100.24412746 633.22592735 105.23823929 C633.23950686 116.16009648 633.24553513 127.08194999 633.24993801 138.00381422 C633.25270173 144.82664283 633.25693939 151.64947002 633.26144218 158.47229767 C633.27363559 177.37063317 633.28393396 196.26896755 633.28731728 215.1673069 C633.28753684 216.37679179 633.28775641 217.58627669 633.28798263 218.83241264 C633.28820091 220.04476536 633.28841918 221.25711809 633.28864408 222.50620878 C633.28908754 224.96282474 633.2895341 227.41944071 633.28998375 229.87605667 C633.29020518 231.09461875 633.29042661 232.31318083 633.29065475 233.56866904 C633.29460008 253.2998009 633.31204572 273.03089578 633.33534327 292.76201336 C633.35908125 313.03018446 633.37152028 333.29833702 633.37268519 353.56652224 C633.37360071 364.941972 633.37932172 376.3173736 633.39750481 387.69281006 C633.41293899 397.38259084 633.4180068 407.07230857 633.4097667 416.76209931 C633.40587161 421.70177066 633.40673375 426.64131518 633.42082405 431.58097076 C633.43363191 436.1127113 633.43230554 440.64423058 633.42023334 445.17597111 C633.41828816 446.80594665 633.42129949 448.43593824 633.4300777 450.06589131 C633.49775728 463.49478262 632.92725809 477.63599627 626.23724937 489.63142776 C625.70841148 490.62819534 625.70841148 490.62819534 625.16889 491.64509964 C622.54311417 496.49158606 619.72069582 501.00161302 616.04974937 505.13142776 C615.50318687 505.79271683 614.95662437 506.45400589 614.39349937 507.13533401 C605.88886682 516.63097248 592.49833515 522.3234361 579.85782528 523.30092978 C573.5277644 523.57347309 567.19357121 523.50742949 560.85931969 523.47200394 C558.72949803 523.47115654 556.5996755 523.471635 554.46985435 523.47333145 C548.71860447 523.47418843 542.96754418 523.45661092 537.21633816 523.43560958 C531.19457091 523.41679304 525.17279881 523.41508842 519.1510067 523.41153336 C507.76158956 523.40222749 496.37225932 523.37763346 484.98288035 523.34748489 C472.01067249 523.31389543 459.03846037 523.29744344 446.06621981 523.28239858 C419.39401491 523.25108261 392.72188702 523.19835053 366.04974937 523.13142776 C366.52141761 526.34565231 366.99714252 529.55926402 367.4735775 532.77278519 C367.67288872 534.13152378 367.67288872 534.13152378 367.87622643 535.51771164 C368.77955597 541.59277587 369.81744813 547.5428573 371.54974937 553.44392776 C371.79330162 554.28657181 372.03685387 555.12921585 372.28778648 555.99739456 C375.62233511 566.8284768 380.58075148 577.2194884 386.04974937 587.13142776 C386.32451607 587.81323105 386.59928276 588.49503433 386.88237572 589.19749832 C388.04363123 591.65467042 389.04357219 593.28505788 391.04974937 595.13142776 C395.29139146 596.28071718 399.42666083 596.10697512 403.79584312 595.99080276 C405.6616478 595.99288742 405.6616478 595.99288742 407.56514549 595.99501419 C410.8665573 595.99475538 414.16542262 595.96242009 417.46637535 595.91115189 C422.11031085 595.84284634 426.75420291 595.8158569 431.39864159 595.81068802 C433.86845548 595.80585259 436.33833832 595.78008443 438.80766869 595.7309761 C445.19866537 595.69629359 449.23594513 595.73459927 454.04974937 600.13142776 C456.97301405 603.45790136 457.96914138 606.04321977 458.29974937 610.50642776 C458.02446467 614.49805595 457.60149273 616.08579859 455.04974937 619.13142776 C448.6579583 623.94580712 442.79860157 623.6959149 434.99274254 623.63936234 C433.65937256 623.64397479 432.32600768 623.65033003 430.99265337 623.65827131 C427.3391356 623.6749408 423.68603677 623.66672939 420.03251767 623.65432644 C416.08833775 623.64526841 412.14422937 623.65924939 408.20006371 623.67024612 C400.47759331 623.68802793 392.75527846 623.68419289 385.03280199 623.67259556 C378.75631838 623.66356018 372.47987836 623.66233769 366.20339012 623.66669083 C365.30991793 623.66730376 364.41644574 623.66791669 363.49589863 623.6685482 C361.68079848 623.6698271 359.86569833 623.67112396 358.0505982 623.67243856 C341.03239488 623.68384337 324.01427775 623.67073222 306.99608856 623.6492371 C292.39527999 623.6313662 277.79459862 623.63447034 263.19379234 623.65291214 C246.23628059 623.67432061 229.27884439 623.68274474 212.32132101 623.67046309 C210.51291689 623.6691889 208.70451277 623.66793141 206.89610863 623.66669083 C206.00635091 623.66607372 205.11659319 623.66545662 204.19987312 623.66482082 C197.9312923 623.66136785 191.66275942 623.66719513 185.39418602 623.67660904 C177.75433764 623.68783014 170.11465363 623.68478668 162.47482407 623.66348606 C158.57720336 623.65297708 154.67985666 623.64885106 150.78223801 623.66208267 C147.21311025 623.67401584 143.6445101 623.66742945 140.0754301 623.64617246 C138.17515278 623.63959894 136.27483875 623.65263437 134.37459993 623.66640139 C127.72923183 623.6053154 123.40069266 623.21398875 118.04974937 619.13142776 C115.30875744 615.2409876 114.49651208 611.76319326 114.70209312 607.08845901 C115.48148081 602.70111937 117.81610433 600.00178526 121.36859703 597.49544144 C126.95911746 595.42393078 132.40606761 595.65025728 138.32318687 595.61970901 C139.60206779 595.60175781 140.88094872 595.58380661 142.1985836 595.56531143 C145.58189898 595.52041366 148.96485497 595.48806497 152.34833336 595.4618721 C155.8075314 595.4319778 159.26650286 595.38547822 162.72553062 595.34041214 C169.50016529 595.25550444 176.27481514 595.18714504 183.04974937 595.13142776 C189.54899297 582.41277087 189.54899297 582.41277087 195.23724937 569.31892776 C195.56620201 568.48836868 195.89515465 567.6578096 196.23407555 566.80208206 C200.68155314 555.25303982 203.49852905 543.47975779 205.61884117 531.31184769 C205.75693954 530.52409706 205.89503792 529.73634644 206.03732109 528.92472458 C206.37569674 526.99378306 206.7128464 525.06262677 207.04974937 523.13142776 C205.95552382 523.13419314 204.86129827 523.13695852 203.73391438 523.1398077 C177.06575289 523.20651047 150.39760227 523.2557544 123.72937489 523.28686428 C110.83263681 523.30231001 97.93595395 523.32335561 85.03925133 523.35774612 C73.79388788 523.38771877 62.54856444 523.40701943 51.30316216 523.41369325 C45.35299891 523.41759219 39.40295009 523.42670728 33.45282364 523.44861794 C27.8427318 523.46910744 22.23280064 523.47523652 16.62267494 523.47075081 C14.57295608 523.47157046 12.52323137 523.47746131 10.47354507 523.48904419 C-10.26385089 523.60040104 -29.10560768 521.73151845 -44.77446938 506.49861526 C-58.69860318 491.34955766 -62.26027515 474.11165221 -62.21094704 454.26771927 C-62.21396992 452.54504854 -62.21786008 450.82237916 -62.2225396 449.09971213 C-62.23281089 444.37926318 -62.23063998 439.65889025 -62.22635901 434.93843508 C-62.22389019 429.84217417 -62.23290795 424.74593149 -62.2403965 419.64967728 C-62.2531416 409.67022901 -62.25493739 399.69080765 -62.25259624 389.71135262 C-62.25081255 381.59811687 -62.25256382 373.48488928 -62.25682068 365.37165451 C-62.25741587 364.21652632 -62.25801106 363.06139813 -62.25862428 361.87126605 C-62.25983605 359.52452836 -62.26105018 357.17779068 -62.26226666 354.83105299 C-62.27314167 332.8258175 -62.27098001 310.82059734 -62.26488181 288.81536099 C-62.25971388 268.69439932 -62.27096492 248.57348608 -62.28998003 228.45253399 C-62.3093634 207.78312489 -62.31761348 187.11373869 -62.31385678 166.44432044 C-62.31194534 154.84377305 -62.31442663 143.24326687 -62.32857132 131.6427269 C-62.3404925 121.76591411 -62.34188178 111.88916789 -62.32978115 102.01235417 C-62.32389741 96.97582511 -62.32277911 91.93941778 -62.33478355 86.90289688 C-62.34565893 82.28630953 -62.3425193 77.66994529 -62.32852187 73.0533683 C-62.32587948 71.38921794 -62.32822699 69.72505001 -62.33625773 68.06091693 C-62.42530879 48.22004015 -58.14500033 31.71039626 -43.95025063 17.13142776 C-31.20502969 5.43561413 -17.37127177 -0.03303097 0 0 Z M-29.32915688 41.27595901 C-34.17694292 49.81507129 -34.37533041 57.99812145 -34.31101418 67.6529274 C-34.31232823 69.11734561 -34.31496225 70.58176313 -34.31879616 72.04617691 C-34.32550117 76.06042353 -34.31351774 80.0744285 -34.29846881 84.08864446 C-34.28534023 88.48763151 -34.28975453 92.88660796 -34.29192257 97.28560925 C-34.29351563 105.81935984 -34.27968234 114.3530155 -34.26041858 122.88674172 C-34.23879799 132.76059007 -34.23643321 142.63438159 -34.2340641 152.50825882 C-34.21832033 178.57016349 -34.1764369 204.63204706 -34.13775063 230.69392776 C-34.07587563 288.91830276 -34.01400063 347.14267776 -33.95025063 407.13142776 C177.24974937 407.13142776 388.44974937 407.13142776 606.04974937 407.13142776 C606.11162437 349.95892776 606.17349937 292.78642776 606.23724937 233.88142776 C606.27821739 206.79322952 606.27821739 206.79322952 606.32001305 179.15779495 C606.33004575 162.98363199 606.33004575 162.98363199 606.33608055 146.80946732 C606.33887782 139.59996481 606.34988097 132.39053207 606.36647606 125.18104935 C606.38559384 116.86330565 606.3942521 108.54562885 606.39008423 100.22786303 C606.38827964 95.97443114 606.39110896 91.72114872 606.40739477 87.46774435 C606.42205231 83.61609675 606.42268176 79.76470355 606.4124527 75.91304398 C606.41059139 73.87194796 606.42346739 71.83085461 606.43699169 69.78980255 C606.37815716 57.60943628 604.76585922 46.43219896 596.29974937 37.22908401 C588.6155424 29.90120115 580.06214192 27.52253653 569.6229248 27.62247658 C568.61715267 27.61606362 567.61138054 27.60965067 566.57513046 27.60304338 C563.21362161 27.58647465 559.85282839 27.59828021 556.49130821 27.61003494 C554.0534682 27.60399212 551.61563197 27.59621326 549.17780244 27.58684981 C543.88190879 27.57056466 538.58622328 27.5666893 533.29032516 27.57385635 C525.41498691 27.58448602 517.53979799 27.57226421 509.66447596 27.55569049 C494.78008534 27.52522662 479.89576282 27.52179865 465.01134755 27.52673654 C453.51711439 27.53040325 442.02290354 27.52688087 430.52867317 27.51828766 C428.87673487 27.51708285 427.22479657 27.51588046 425.57285827 27.51468045 C423.08348514 27.51286593 420.59411202 27.51104859 418.10473891 27.50921575 C394.96305407 27.49235916 371.82137762 27.48368363 348.6796875 27.49202919 C347.80747987 27.49234194 346.93527223 27.49265469 346.03663407 27.49297692 C341.61603724 27.49458847 337.19544044 27.49628001 332.77484365 27.49800353 C331.89691407 27.4983457 331.0189845 27.49868788 330.11445099 27.49904042 C328.33906497 27.49973373 326.56367896 27.50043079 324.78829294 27.5011316 C297.16152741 27.51184667 269.53488954 27.49598236 241.90814781 27.45906448 C210.86227674 27.41762609 179.81648474 27.39617865 148.77058446 27.40421546 C145.45987536 27.40500614 142.14916624 27.40572923 138.83845711 27.40641022 C138.02328925 27.40659168 137.2081214 27.40677314 136.36825149 27.40696011 C124.06668365 27.40929129 111.76519572 27.39600137 99.46364784 27.37478638 C85.4724699 27.35068195 71.48146788 27.34756488 57.49028732 27.37236671 C49.66303765 27.38562121 41.83620871 27.38236873 34.00899273 27.35518968 C28.16145358 27.33674806 22.31425652 27.34974192 16.46673314 27.37488528 C14.10344286 27.3801952 11.74010349 27.37539585 9.37686129 27.35941355 C-6.78518227 27.25770626 -18.69121466 27.61821385 -29.32915688 41.27595901 Z " fill="#2C67A7" transform="translate(452.95025062561035,189.86857223510742)"/>
<path d="M0 0 C0.64327216 -0.00297112 1.28654433 -0.00594224 1.94930959 -0.0090034 C4.09083328 -0.0176299 6.23230068 -0.01919348 8.37384033 -0.02069092 C9.91513181 -0.02532337 11.45642216 -0.0303486 12.99771118 -0.03573608 C17.17557961 -0.04882063 21.353432 -0.05529727 25.53131771 -0.05974674 C28.1449168 -0.06268374 30.75851156 -0.06678972 33.37210846 -0.07125092 C41.5594826 -0.08491522 49.74684677 -0.09458719 57.93423152 -0.09845281 C67.36685898 -0.10293159 76.7993414 -0.12047563 86.23192477 -0.1494534 C93.53575393 -0.17110821 100.83954239 -0.18115911 108.14340329 -0.18249393 C112.49986181 -0.1835392 116.85618378 -0.18938769 121.21260834 -0.20731354 C125.31338729 -0.22386018 129.41392799 -0.22591796 133.51472855 -0.21717453 C135.01344315 -0.21640768 136.51217093 -0.22070005 138.01085281 -0.23063278 C155.31503198 -0.33852481 164.09412779 3.96807216 176.32574463 15.94219971 C190.71297823 30.23695716 190.71297823 30.23695716 192.34747314 35.14044189 C193.00747314 35.14044189 193.66747314 35.14044189 194.34747314 35.14044189 C195.57305908 36.39385986 195.57305908 36.39385986 197.08184814 38.25762939 C200.54483959 42.3324758 204.24081373 46.09044483 208.05059814 49.83575439 C208.96258972 50.73569122 208.96258972 50.73569122 209.89300537 51.65380859 C212.43772521 54.16268614 214.98561665 56.66817535 217.54278564 59.16436768 C219.42721817 61.00636232 221.30197693 62.85777248 223.17559814 64.71075439 C224.03813202 65.5453569 224.03813202 65.5453569 224.91809082 66.39682007 C225.72473175 67.19827957 225.72473175 67.19827957 226.54766846 68.01593018 C227.01731018 68.47589386 227.4869519 68.93585754 227.9708252 69.40975952 C231.8897659 74.33653954 232.7862403 78.94004148 232.7351532 85.08374023 C232.7432315 86.25690965 232.7432315 86.25690965 232.75147301 87.45377946 C232.76574013 90.06531562 232.75865197 92.67634401 232.75152588 95.28790283 C232.75723024 97.16416836 232.76419475 99.04043042 232.77232361 100.91668701 C232.79026642 106.00779992 232.78908407 111.09874057 232.78338122 116.1898756 C232.78028988 120.44412864 232.78638148 124.69834857 232.79241997 128.9525969 C232.80646834 138.99343003 232.80490233 149.03417809 232.79351807 159.07501221 C232.78204645 169.42126647 232.79609578 179.76726123 232.82291454 190.11348128 C232.84509766 199.00542324 232.85170273 207.89728391 232.84583813 216.78925157 C232.84247241 222.09586946 232.84485764 227.40232117 232.86208916 232.70891571 C232.87759693 237.70275916 232.87356018 242.69621969 232.85478401 247.69004822 C232.85110822 249.51771727 232.85417701 251.34541493 232.8646698 253.17305756 C232.93369067 266.19462705 231.85698177 277.35742971 222.34747314 287.14044189 C213.24773168 294.46340902 204.45543553 297.29030465 192.84780884 297.28761292 C191.99375194 297.2912896 191.13969505 297.29496629 190.25975764 297.29875439 C187.3988533 297.30976454 184.53798532 297.31363055 181.67706299 297.31744385 C179.6252328 297.32371053 177.57340375 297.33035751 175.52157593 297.33735657 C168.78386217 297.3583755 162.04614825 297.36875711 155.30841064 297.37872314 C152.98667006 297.38277155 150.66492959 297.38688849 148.34318924 297.39107323 C137.43433996 297.41012033 126.52549743 297.42435224 115.61663473 297.4326852 C103.03484266 297.44245539 90.45322661 297.46877141 77.87149656 297.50918609 C68.13966804 297.53937095 58.40788991 297.55415634 48.6760155 297.55746621 C42.86687126 297.55981401 37.05791518 297.5687396 31.24882126 297.59392738 C25.78062062 297.61725437 20.31273142 297.62142261 14.84449387 297.611166 C12.84307823 297.61067166 10.84164702 297.61696203 8.84027863 297.63072205 C-4.66604273 297.7183492 -15.82183781 297.18910016 -26.64862061 288.12481689 C-33.9429502 280.90158213 -37.95622262 272.11129529 -38.05841917 261.87752694 C-38.05240912 260.9745054 -38.04639908 260.07148385 -38.04020691 259.14109802 C-38.04559245 258.16197128 -38.05097798 257.18284454 -38.05652672 256.17404729 C-38.07078316 252.90775178 -38.06370812 249.64186287 -38.05657959 246.37554932 C-38.06228441 244.02771174 -38.0692491 241.67987694 -38.07737732 239.33204651 C-38.09531289 232.96417612 -38.09413934 226.5964435 -38.08843493 220.22855544 C-38.08495176 214.2344816 -38.09290853 208.24042473 -38.09979559 202.24635617 C-38.11351033 189.64740693 -38.10809058 177.04851987 -38.09661037 164.44957206 C-38.08668308 152.94056636 -38.0996117 141.43172155 -38.12354457 129.92274066 C-38.14796862 118.08779769 -38.15753509 106.25292955 -38.15089184 94.4179619 C-38.14740643 87.7805906 -38.1499239 81.14332709 -38.16714287 74.50597191 C-38.18263409 68.26208369 -38.17863186 62.01850198 -38.15983772 55.77462578 C-38.1561577 53.4877961 -38.1592431 51.2009436 -38.16972351 48.91413498 C-38.23023031 34.61589451 -38.23047102 22.64647489 -28.64862061 11.14825439 C-20.51099099 2.96285005 -11.36069061 0.02947272 0 0 Z " fill="#FEFEFE" transform="translate(652.6525268554688,268.85955810546875)"/>
<path d="M0 0 C211.2 0 422.4 0 640 0 C640 40.21454545 640 40.21454545 629.8515625 51.359375 C621.12780111 59.51743173 612.89906564 61.15371853 601.27373886 61.13142776 C599.78758167 61.13450672 599.78758167 61.13450672 598.27140111 61.13764787 C594.93106413 61.14332993 591.59076822 61.14185913 588.25042725 61.14044189 C585.83951751 61.14302483 583.4286082 61.14603779 581.01769948 61.1494453 C575.0735468 61.15667855 569.129408 61.15921833 563.18525227 61.15977435 C556.06635264 61.16068804 548.94746132 61.1673557 541.82856526 61.17412117 C524.62284818 61.1901824 507.41713199 61.19608442 490.21140876 61.20086992 C482.07311144 61.20320556 473.93481482 61.20680816 465.79651804 61.2105653 C437.9417019 61.22340038 410.08688615 61.23412003 382.23206711 61.2375679 C380.4834682 61.23778953 378.73486929 61.23801132 376.98627038 61.23823325 C375.23343711 61.23845389 373.48060384 61.23867438 371.72777057 61.2388947 C368.2112546 61.23933726 364.69473863 61.23978437 361.17822266 61.24023438 C360.30633094 61.24034377 359.43443923 61.24045316 358.53612656 61.24056586 C330.25887949 61.24419727 301.98165804 61.26012072 273.70442079 61.28342474 C243.81218696 61.30801472 213.91996779 61.32174034 184.02772355 61.32293582 C180.74704122 61.32310728 177.4663589 61.3233227 174.18567657 61.32357025 C173.37787285 61.32362602 172.57006913 61.32368179 171.73778651 61.32373925 C158.73239136 61.32489036 145.72702249 61.3359174 132.72163622 61.35045731 C119.65262099 61.36481585 106.58363949 61.36806291 93.51461855 61.36001733 C85.7490841 61.35555818 77.98365845 61.35943307 70.21813828 61.37525584 C64.42166393 61.38614206 58.62528712 61.38137388 52.82881668 61.37048396 C50.48225209 61.36851851 48.13567667 61.3716443 45.78912732 61.38032833 C42.60243726 61.39137647 39.41630022 61.38396336 36.2296257 61.3719368 C34.85942112 61.38332959 34.85942112 61.38332959 33.46153563 61.39495254 C23.79268372 61.31604391 15.35788894 58.37591504 8 52 C-4.78504996 37.00215293 0 20.15454405 0 0 Z " fill="#FEFEFE" transform="translate(419,625)"/>
<path d="M0 0 C0.64327216 -0.00297112 1.28654433 -0.00594224 1.94930959 -0.0090034 C4.09083328 -0.0176299 6.23230068 -0.01919348 8.37384033 -0.02069092 C9.91513181 -0.02532337 11.45642216 -0.0303486 12.99771118 -0.03573608 C17.17557961 -0.04882063 21.353432 -0.05529727 25.53131771 -0.05974674 C28.1449168 -0.06268374 30.75851156 -0.06678972 33.37210846 -0.07125092 C41.5594826 -0.08491522 49.74684677 -0.09458719 57.93423152 -0.09845281 C67.36685898 -0.10293159 76.7993414 -0.12047563 86.23192477 -0.1494534 C93.53575393 -0.17110821 100.83954239 -0.18115911 108.14340329 -0.18249393 C112.49986181 -0.1835392 116.85618378 -0.18938769 121.21260834 -0.20731354 C125.31338729 -0.22386018 129.41392799 -0.22591796 133.51472855 -0.21717453 C135.01344315 -0.21640768 136.51217093 -0.22070005 138.01085281 -0.23063278 C155.31503198 -0.33852481 164.09412779 3.96807216 176.32574463 15.94219971 C190.71297823 30.23695716 190.71297823 30.23695716 192.34747314 35.14044189 C193.00747314 35.14044189 193.66747314 35.14044189 194.34747314 35.14044189 C195.57305908 36.39385986 195.57305908 36.39385986 197.08184814 38.25762939 C200.54483959 42.3324758 204.24081373 46.09044483 208.05059814 49.83575439 C208.96258972 50.73569122 208.96258972 50.73569122 209.89300537 51.65380859 C212.43772521 54.16268614 214.98561665 56.66817535 217.54278564 59.16436768 C219.42721817 61.00636232 221.30197693 62.85777248 223.17559814 64.71075439 C224.03813202 65.5453569 224.03813202 65.5453569 224.91809082 66.39682007 C225.72473175 67.19827957 225.72473175 67.19827957 226.54766846 68.01593018 C227.01731018 68.47589386 227.4869519 68.93585754 227.9708252 69.40975952 C231.8897659 74.33653954 232.7862403 78.94004148 232.7351532 85.08374023 C232.7432315 86.25690965 232.7432315 86.25690965 232.75147301 87.45377946 C232.76574013 90.06531562 232.75865197 92.67634401 232.75152588 95.28790283 C232.75723024 97.16416836 232.76419475 99.04043042 232.77232361 100.91668701 C232.79026642 106.00779992 232.78908407 111.09874057 232.78338122 116.1898756 C232.78028988 120.44412864 232.78638148 124.69834857 232.79241997 128.9525969 C232.80646834 138.99343003 232.80490233 149.03417809 232.79351807 159.07501221 C232.78204645 169.42126647 232.79609578 179.76726123 232.82291454 190.11348128 C232.84509766 199.00542324 232.85170273 207.89728391 232.84583813 216.78925157 C232.84247241 222.09586946 232.84485764 227.40232117 232.86208916 232.70891571 C232.87759693 237.70275916 232.87356018 242.69621969 232.85478401 247.69004822 C232.85110822 249.51771727 232.85417701 251.34541493 232.8646698 253.17305756 C232.93369067 266.19462705 231.85698177 277.35742971 222.34747314 287.14044189 C213.24773168 294.46340902 204.45543553 297.29030465 192.84780884 297.28761292 C191.99375194 297.2912896 191.13969505 297.29496629 190.25975764 297.29875439 C187.3988533 297.30976454 184.53798532 297.31363055 181.67706299 297.31744385 C179.6252328 297.32371053 177.57340375 297.33035751 175.52157593 297.33735657 C168.78386217 297.3583755 162.04614825 297.36875711 155.30841064 297.37872314 C152.98667006 297.38277155 150.66492959 297.38688849 148.34318924 297.39107323 C137.43433996 297.41012033 126.52549743 297.42435224 115.61663473 297.4326852 C103.03484266 297.44245539 90.45322661 297.46877141 77.87149656 297.50918609 C68.13966804 297.53937095 58.40788991 297.55415634 48.6760155 297.55746621 C42.86687126 297.55981401 37.05791518 297.5687396 31.24882126 297.59392738 C25.78062062 297.61725437 20.31273142 297.62142261 14.84449387 297.611166 C12.84307823 297.61067166 10.84164702 297.61696203 8.84027863 297.63072205 C-4.66604273 297.7183492 -15.82183781 297.18910016 -26.64862061 288.12481689 C-33.9429502 280.90158213 -37.95622262 272.11129529 -38.05841917 261.87752694 C-38.05240912 260.9745054 -38.04639908 260.07148385 -38.04020691 259.14109802 C-38.04559245 258.16197128 -38.05097798 257.18284454 -38.05652672 256.17404729 C-38.07078316 252.90775178 -38.06370812 249.64186287 -38.05657959 246.37554932 C-38.06228441 244.02771174 -38.0692491 241.67987694 -38.07737732 239.33204651 C-38.09531289 232.96417612 -38.09413934 226.5964435 -38.08843493 220.22855544 C-38.08495176 214.2344816 -38.09290853 208.24042473 -38.09979559 202.24635617 C-38.11351033 189.64740693 -38.10809058 177.04851987 -38.09661037 164.44957206 C-38.08668308 152.94056636 -38.0996117 141.43172155 -38.12354457 129.92274066 C-38.14796862 118.08779769 -38.15753509 106.25292955 -38.15089184 94.4179619 C-38.14740643 87.7805906 -38.1499239 81.14332709 -38.16714287 74.50597191 C-38.18263409 68.26208369 -38.17863186 62.01850198 -38.15983772 55.77462578 C-38.1561577 53.4877961 -38.1592431 51.2009436 -38.16972351 48.91413498 C-38.23023031 34.61589451 -38.23047102 22.64647489 -28.64862061 11.14825439 C-20.51099099 2.96285005 -11.36069061 0.02947272 0 0 Z M-9.65252686 32.14044189 C-11.33816402 35.51171623 -10.80047322 39.33262192 -10.79969788 43.04103088 C-10.80337456 43.97434539 -10.80705125 44.90765991 -10.81083935 45.86925668 C-10.82190704 49.0160537 -10.82572523 52.16281774 -10.82952881 55.30963135 C-10.83579107 57.55794379 -10.84243765 59.80625518 -10.84944153 62.05456543 C-10.86687197 68.1764847 -10.87740859 74.29839615 -10.88564706 80.4203341 C-10.89079226 84.24195191 -10.89686816 88.06356726 -10.90315819 91.88518333 C-10.92003 102.46322624 -10.93466546 113.04126698 -10.94190693 123.61932087 C-10.94381687 126.36488662 -10.94573719 129.11045235 -10.94769287 131.85601807 C-10.94817661 132.53842629 -10.94866035 133.22083452 -10.94915875 133.92392179 C-10.95746119 144.98146209 -10.98280154 156.03889428 -11.01527355 167.09638736 C-11.04832974 178.44519569 -11.06602146 189.79392969 -11.06955117 201.14279336 C-11.07190628 207.51628629 -11.08092681 213.88960836 -11.10601234 220.2630558 C-11.12922387 226.25730742 -11.13355413 232.25127485 -11.12325096 238.24555969 C-11.12275382 240.44783661 -11.12912632 242.6501272 -11.14280701 244.85236168 C-11.1604183 247.85488589 -11.15347263 250.85637827 -11.14027405 253.85890198 C-11.15124329 254.73400069 -11.16221254 255.6090994 -11.17351419 256.51071626 C-11.13010628 260.59012651 -10.97506538 262.62965778 -8.74704266 266.15803814 C-4.98253725 269.72104285 -1.6390945 269.29120896 3.29896545 269.29434204 C4.54580401 269.30091542 4.54580401 269.30091542 5.81783122 269.3076216 C8.61913662 269.32103746 11.42041054 269.32719468 14.22174072 269.33331299 C16.22375125 269.34121169 18.22576036 269.34948049 20.22776794 269.35809326 C26.81583288 269.38433774 33.40390426 269.39962219 39.99200439 269.41387939 C42.25722445 269.41923786 44.52244445 269.42461537 46.78766441 269.43001175 C56.20762614 269.45164302 65.62758613 269.47038124 75.04756641 269.48163414 C88.56232686 269.49788308 102.07680022 269.53108113 115.59145242 269.58803499 C125.08618454 269.62668851 134.58083973 269.64626133 144.07564849 269.6515547 C149.75055768 269.65521412 155.42516087 269.66729835 161.09998512 269.69965744 C166.4376745 269.72965761 171.77487141 269.73607861 177.11262703 269.72427368 C179.0730294 269.72405228 181.03345409 269.73241216 182.99377823 269.74992752 C185.66812627 269.77252433 188.34067419 269.76436898 191.01502991 269.7484436 C191.79285491 269.76232569 192.57067992 269.77620778 193.37207538 269.79051054 C197.18969871 269.73440355 199.18541806 269.25474603 202.33067131 267.03626919 C204.81682994 263.46651539 204.96500314 261.52692594 204.94874573 257.19920349 C204.95301785 256.51297812 204.95728998 255.82675275 204.96169156 255.11973268 C204.96990932 252.82673067 204.94246054 250.53556943 204.9151001 248.24273682 C204.91368935 246.59670047 204.91448214 244.95066098 204.91731262 243.30462646 C204.91874714 238.83991296 204.88935184 234.37587117 204.85444283 229.91131377 C204.82318518 225.24417893 204.82024906 220.57702866 204.8143158 215.9098053 C204.79877561 207.07353946 204.75774478 198.23758295 204.70756835 189.40145332 C204.65168033 179.34111301 204.62418974 169.28075793 204.59909117 159.22030103 C204.54682909 138.52684201 204.45888337 117.83366144 204.34747314 97.14044189 C203.3395874 97.12062256 202.33170166 97.10080322 201.29327393 97.0803833 C197.50967828 97.00359982 193.72643133 96.91500273 189.94317627 96.82305908 C188.31401516 96.78506679 186.68477862 96.75016539 185.05548096 96.71856689 C159.40677155 96.21503395 159.40677155 96.21503395 150.34747314 88.14044189 C143.63069122 80.3588043 143.06114284 70.74239236 142.93341064 60.85528564 C142.90436142 59.44274254 142.90436142 59.44274254 142.87472534 58.00166321 C142.81548441 55.02717831 142.76876841 52.05265354 142.72247314 49.07794189 C142.68424218 47.04732711 142.64518757 45.01672766 142.60528564 42.98614502 C142.50982926 38.03770348 142.42559617 33.08918619 142.34747314 28.14044189 C123.26745175 28.04701257 104.18747675 27.97646958 85.10727406 27.93319321 C76.24805366 27.91256539 67.38897538 27.88444066 58.52984619 27.83868408 C50.80848318 27.79882296 43.08722308 27.77301067 35.36576003 27.76408792 C31.27701846 27.75887191 27.18857132 27.74660808 23.09992409 27.71752167 C19.25118101 27.69036385 15.40285354 27.68199752 11.55402374 27.68801117 C10.14188821 27.68691108 8.72973873 27.67895897 7.31768608 27.66362 C5.38837121 27.64369075 3.45883315 27.65089392 1.5294342 27.65942383 C-0.08969517 27.65389307 -0.08969517 27.65389307 -1.74153423 27.64825058 C-5.36490548 28.26089104 -7.03154473 29.61724831 -9.65252686 32.14044189 Z " fill="#2A65A5" transform="translate(652.6525268554688,268.85955810546875)"/>
<path d="M0 0 C33.99 0 67.98 0 103 0 C103.99 8.415 103.99 8.415 105 17 C105.65350292 20.34094191 106.31851118 23.53995566 107.1875 26.8125 C107.40035645 27.63379395 107.61321289 28.45508789 107.83251953 29.30126953 C111.47157681 42.91346461 116.05914482 56.01158922 122.71484375 68.4453125 C124 71 124 71 124 73 C76.15 73 28.3 73 -21 73 C-17.04 63.595 -17.04 63.595 -13 54 C-6.88929089 36.2669618 -3.08455819 18.50734916 0 0 Z " fill="#FEFEFE" transform="translate(688,713)"/>
<path d="M0 0 C3.11245129 2.69406252 5.98378168 5.61110372 8.87109375 8.54296875 C9.7116481 9.38539627 10.55220245 10.22782379 11.41822815 11.09577942 C13.19257772 12.87683944 14.96333174 14.66148776 16.73071289 16.44946289 C19.41763065 19.16740126 22.11494097 21.87465409 24.81445312 24.58007812 C26.54228829 26.31709021 28.26952148 28.05470135 29.99609375 29.79296875 C30.79421982 30.5953447 31.59234589 31.39772064 32.41465759 32.22441101 C37.13107584 37.00038023 41.63392361 41.90273637 46 47 C47.07894531 48.21816406 47.07894531 48.21816406 48.1796875 49.4609375 C48.73914063 50.09257812 49.29859375 50.72421875 49.875 51.375 C50.44992187 52.02210938 51.02484375 52.66921875 51.6171875 53.3359375 C54.65350164 56.98980706 54.45244239 60.56091442 54.41015625 65.1640625 C53.75130877 69.71952225 51.58879405 72.24886497 48 75 C43.40651792 77.34560787 39.97416245 77.17571112 35 76 C32.0625 74.5625 32.0625 74.5625 30 73 C30 72.34 30 71.68 30 71 C28.515 70.505 28.515 70.505 27 70 C25.54309639 68.36493461 24.15635814 66.66667675 22.8125 64.9375 C19.42858369 60.6911245 15.95418444 56.78436692 12.01953125 53.046875 C10.21023421 51.21308071 8.5437378 49.33158665 6.8737793 47.37207031 C6.06580147 46.42524384 6.06580147 46.42524384 5.24150085 45.45928955 C4.83180557 44.977724 4.42211029 44.49615845 4 44 C3.99635437 45.12673126 3.99270874 46.25346252 3.98895264 47.41433716 C3.95199604 58.03769718 3.89421591 68.66076752 3.81609726 79.28390694 C3.77660431 84.74527302 3.74442464 90.20647743 3.72900391 95.66796875 C3.71384947 100.93958457 3.67942505 106.21075595 3.63169098 111.48217392 C3.61686474 113.49234019 3.60895827 115.50256991 3.60811615 117.51279068 C3.60574852 120.3307853 3.57868508 123.14754968 3.54589844 125.96533203 C3.55344398 127.20935036 3.55344398 127.20935036 3.56114197 128.47850037 C3.46608853 133.76609283 2.51430655 136.81150626 -1 141 C-5.365558 143.910372 -8.79500079 144.6506249 -14 144 C-19.08643801 141.26114877 -22.17004027 138.4898792 -24 133 C-24.12018881 130.21697241 -24.18536122 127.45711076 -24.20532227 124.6730957 C-24.21522186 123.82409698 -24.22512146 122.97509827 -24.23532104 122.10037231 C-24.26692583 119.29220373 -24.29168948 116.48401822 -24.31640625 113.67578125 C-24.33697666 111.72950296 -24.35797315 109.78322912 -24.37937927 107.83695984 C-24.43459099 102.71271372 -24.48400427 97.58842735 -24.53222656 92.46411133 C-24.58244813 87.23580337 -24.63813078 82.00755392 -24.69335938 76.77929688 C-24.80092995 66.51958123 -24.90237741 56.25981479 -25 46 C-26.26571855 47.253801 -27.52970058 48.50935515 -28.79296875 49.765625 C-29.49703857 50.46461914 -30.2011084 51.16361328 -30.92651367 51.88378906 C-32.79254242 53.78826771 -34.56812692 55.7344882 -36.3125 57.75 C-36.87582031 58.39839844 -37.43914063 59.04679687 -38.01953125 59.71484375 C-39.10332873 60.9653793 -40.18599571 62.21691111 -41.26318359 63.47314453 C-42.66332599 65.09726989 -44.08036524 66.70540282 -45.5 68.3125 C-45.93868408 68.82844727 -46.37736816 69.34439453 -46.8293457 69.87597656 C-50.75314387 74.27409587 -54.7418231 76.4437259 -60.5625 77.4375 C-65.06609074 76.6291632 -69.17142861 73.57293228 -72 70 C-73.50023519 66.31760454 -73.7216201 61.88615594 -73 58 C-70.32209887 52.44319305 -66.94779651 48.59082527 -62.5 44.375 C-58.71667866 40.73752098 -55.25888646 37.12703244 -52 33 C-50.35791361 31.30911034 -48.6867947 29.64629256 -47 28 C-44.24577223 25.27508774 -41.49824464 22.54344454 -38.75 19.8125 C-38.0178125 19.08869141 -37.285625 18.36488281 -36.53125 17.61914062 C-35.83515625 16.92626953 -35.1390625 16.23339844 -34.421875 15.51953125 C-33.78862305 14.89151611 -33.15537109 14.26350098 -32.50292969 13.61645508 C-30.91075025 12.05609672 -30.91075025 12.05609672 -30 10 C-29.34 10 -28.68 10 -28 10 C-27.73832031 9.41476562 -27.47664062 8.82953125 -27.20703125 8.2265625 C-24.78512789 3.75897378 -20.92001633 0.13231732 -16.5625 -2.4375 C-9.92174873 -3.89522589 -5.81939268 -3.42283 0 0 Z " fill="#2863A3" transform="translate(758,359)"/>
<path d="M0 0 C0.66 0 1.32 0 2 0 C3.3440093 1.99284138 4.67541292 3.99419671 6 6 C7.6222454 7.70993434 9.29413425 9.37347684 11 11 C12.27498424 12.24576585 13.54567124 13.49594169 14.8125 14.75 C15.41707031 15.34296875 16.02164063 15.9359375 16.64453125 16.546875 C18 18 18 18 18 19 C12.06 19 6.12 19 0 19 C0 12.73 0 6.46 0 0 Z " fill="#F0F5F8" transform="translate(821,318)"/>
<path d="M0 0 C5.91334194 4.91311495 11.37582931 10.19250815 16.8125 15.625 C17.67037109 16.470625 18.52824219 17.31625 19.41210938 18.1875 C20.23130859 19.00476563 21.05050781 19.82203125 21.89453125 20.6640625 C22.63550049 21.40092285 23.37646973 22.1377832 24.13989258 22.89697266 C25.93068457 24.92163236 27.12219449 26.4487302 28 29 C27.625 31.25 27.625 31.25 27 33 C26.54753906 31.8965625 26.09507812 30.793125 25.62890625 29.65625 C22.58834138 23.58315346 17.74312812 19.19974719 12.9375 14.5 C12.02677734 13.5821875 11.11605469 12.664375 10.17773438 11.71875 C5.84535561 6.72995157 5.84535561 6.72995157 0 5 C0 3.35 0 1.7 0 0 Z " fill="#21589F" transform="translate(856,315)"/>
</svg>
