<?xml version="1.0" encoding="UTF-8"?>
<svg version="1.1" xmlns="http://www.w3.org/2000/svg" width="562" height="464">
<path d="M0 0 C0.66 0 1.32 0 2 0 C2 0.66 2 1.32 2 2 C5.62885324 2.15149298 5.62885324 2.15149298 9 1 C9 1.66 9 2.32 9 3 C9.66 3 10.32 3 11 3 C11 2.34 11 1.68 11 1 C11.99 1.33 12.98 1.66 14 2 C15.82889371 2.08751953 17.66088867 2.11503399 19.49186707 2.10955811 C20.6371179 2.1086895 21.78236874 2.10782089 22.96232414 2.10692596 C24.22281137 2.10096657 25.48329861 2.09500717 26.78198242 2.08886719 C28.1251778 2.0862331 29.46837422 2.08409189 30.81157112 2.08240509 C33.72260785 2.07793934 36.63361717 2.07053838 39.54464149 2.06095123 C44.23729199 2.04581599 48.92993377 2.03842629 53.62260437 2.03289795 C54.42302188 2.03195074 55.22343939 2.03100354 56.04811198 2.03002763 C57.68918192 2.02812532 59.33025191 2.02625939 60.97132194 2.02442884 C63.49866134 2.02145086 66.0259995 2.01791309 68.55333805 2.01428604 C95.40962881 1.97778289 122.26571554 2.05601424 149.12169075 2.1838913 C157.68033603 2.22427843 166.23887557 2.25650644 174.79760742 2.27099609 C182.47786942 2.28400946 190.15793417 2.31084867 197.83808488 2.35461307 C201.84312117 2.37700316 205.8479171 2.39292326 209.85302162 2.39188385 C213.56329552 2.39113828 217.27301615 2.40904519 220.98314667 2.44116783 C222.97146775 2.45364521 224.95988185 2.44662164 226.94822693 2.43885803 C234.22892723 2.5233708 239.64515028 3.39418852 246 7 C247.010625 7.515625 248.02125 8.03125 249.0625 8.5625 C252.88990649 11.73843304 255.44703179 15.4641196 258.265625 19.5390625 C259.91674931 22.03051211 259.91674931 22.03051211 262 24 C262.22705078 26.70556641 262.22705078 26.70556641 262.1953125 30.1015625 C262.18886719 31.31328125 262.18242187 32.525 262.17578125 33.7734375 C262.15902344 35.04445312 262.14226562 36.31546875 262.125 37.625 C262.11597656 38.90375 262.10695313 40.1825 262.09765625 41.5 C262.07402303 44.66685167 262.04107629 47.83333424 262 51 C262.76262146 50.98889694 263.52524292 50.97779388 264.31097412 50.96635437 C271.54752233 50.86558319 278.78372366 50.78974973 286.02079391 50.74093914 C289.74024479 50.71500005 293.45910919 50.67989642 297.17822266 50.62280273 C300.77687473 50.56791289 304.37496782 50.53846197 307.97400665 50.52561378 C309.99455733 50.51206945 312.01488747 50.47312983 314.03509521 50.43351746 C326.89269848 50.42966492 336.30037838 54.19696069 345.5 63.1875 C349.22371696 67.37668158 352.00095971 71.84246786 354.72558594 76.72851562 C356.28382443 79.50588171 357.87964127 82.26031972 359.4765625 85.015625 C362.10480009 89.55251146 364.72412296 94.09427719 367.3359375 98.640625 C370.19488703 103.6113152 373.08043001 108.56472859 376 113.5 C380.85425264 121.7133092 385.62194084 129.97613982 390.37597656 138.24780273 C393.32304396 143.37364321 396.28039232 148.49117007 399.30078125 153.57421875 C399.80230713 154.42322754 400.30383301 155.27223633 400.82055664 156.14697266 C401.73591628 157.69378192 402.65770114 159.23681788 403.58764648 160.77490234 C408.44503152 169.0136239 410.45092786 176.6294869 410.67578125 186.16796875 C410.72500481 187.68972969 410.72500481 187.68972969 410.77522278 189.24223328 C411.19099444 203.90579469 411.18698273 218.58142899 411.18530273 233.24975586 C411.18519993 237.5011343 411.19901989 241.75235015 411.21607494 246.00368977 C411.22723995 249.32820882 411.22922081 252.65268848 411.22869301 255.97722435 C411.22985985 257.54510258 411.23420717 259.11298228 411.24202538 260.68084145 C411.30956214 275.57643601 410.69466562 287.55702083 400.1640625 298.94921875 C393.33526841 305.42054889 384.00697939 307.08777539 374.8125 307.125 C373.884375 307.08375 372.95625 307.0425 372 307 C371.9175 308.299375 371.835 309.59875 371.75 310.9375 C370.66961185 320.51093944 365.22232054 328.16651919 360 336 C359.34 336 358.68 336 358 336 C357.75894531 336.58910156 357.51789063 337.17820312 357.26953125 337.78515625 C352.69198649 345.77121126 341.32032285 349.51524435 333 352 C321.01380346 354.79982912 307.39374445 352.02676221 296.92578125 345.7578125 C283.60458749 336.49317087 276.96197664 323.3961022 273 308 C268.65347538 307.16768678 264.54837337 306.86532085 260.125 306.875 C258.39636719 306.87113281 258.39636719 306.87113281 256.6328125 306.8671875 C252.66149415 306.92911567 248.72194601 307.2406516 244.76171875 307.53515625 C235.05590271 308.20640041 225.40234188 307.88026251 215.6875 307.5625 C213.06092975 307.48278949 210.43430712 307.40517334 207.80764771 307.32846069 C206.13026086 307.27934045 204.45291103 307.22893661 202.77560425 307.17715454 C197.54833537 307.0215219 192.33424715 306.96843705 187.10473633 307.07788086 C184.93913963 306.997748 183.07637395 306.60239932 181 306 C180.67 306.66 180.34 307.32 180 308 C179.41637695 307.83250244 178.83275391 307.66500488 178.23144531 307.49243164 C174.74070252 306.72210033 171.28656986 307.18350233 167.75 307.4375 C159.80914432 307.93267362 151.89352567 308.11603243 143.9375 308.125 C142.8846582 308.12943115 141.83181641 308.1338623 140.74707031 308.13842773 C139.27705566 308.13564819 139.27705566 308.13564819 137.77734375 308.1328125 C136.90327881 308.13168457 136.02921387 308.13055664 135.12866211 308.12939453 C133 308 133 308 131 307 C129.51411977 306.90460127 128.02409435 306.86926516 126.53515625 306.8671875 C125.21161133 306.86525391 125.21161133 306.86525391 123.86132812 306.86328125 C122.93771484 306.86714844 122.01410156 306.87101562 121.0625 306.875 C120.14275391 306.87113281 119.22300781 306.86726563 118.27539062 306.86328125 C116.94991211 306.86521484 116.94991211 306.86521484 115.59765625 306.8671875 C114.78820557 306.86831543 113.97875488 306.86944336 113.14477539 306.87060547 C110.81364562 306.91849393 110.81364562 306.91849393 108 308 C106.51876453 308.0806622 105.03417796 308.10761193 103.55078125 308.09765625 C102.70322266 308.09443359 101.85566406 308.09121094 100.98242188 308.08789062 C100.10134766 308.07951172 99.22027344 308.07113281 98.3125 308.0625 C97.41982422 308.05798828 96.52714844 308.05347656 95.60742188 308.04882812 C93.40488013 308.03704983 91.20247401 308.02060164 89 308 C88.58041016 309.41539062 88.58041016 309.41539062 88.15234375 310.859375 C83.46635717 326.09381648 76.95834294 338.66927326 62.6328125 346.64453125 C61.76398438 347.09183594 60.89515625 347.53914063 60 348 C58.82050781 348.62455078 58.82050781 348.62455078 57.6171875 349.26171875 C47.1144148 353.95339621 33.12741008 353.69873313 22.25 350.3125 C17.46769405 348.39957762 13.15421552 346.03829758 9 343 C7.989375 342.278125 6.97875 341.55625 5.9375 340.8125 C2.49929418 337.86278244 0.11984072 334.14201524 -2.38671875 330.40234375 C-2.91910156 329.60957031 -3.45148438 328.81679688 -4 328 C-4.50144531 327.23816406 -5.00289062 326.47632813 -5.51953125 325.69140625 C-6.00808594 325.13324219 -6.49664062 324.57507813 -7 324 C-7.99 324 -8.98 324 -10 324 C-9.67 323.34 -9.34 322.68 -9 322 C-7.67994453 318.0398336 -8.84073973 315.95512328 -10 312 C-10.04058013 310.33382743 -10.04866195 308.66595612 -10 307 C-10.87140625 307.03480469 -11.7428125 307.06960938 -12.640625 307.10546875 C-23.38196186 307.34959004 -33.71105998 306.92350979 -42.25390625 299.73046875 C-50.20007293 291.85540871 -53.36440611 283.82750492 -53.6875 272.75 C-53.72166016 271.96109375 -53.75582031 271.1721875 -53.79101562 270.359375 C-53.93414289 266.90095302 -54 263.46252173 -54 260 C-54.26499584 257.1176606 -54.57014539 254.24123739 -54.87890625 251.36328125 C-54.93884766 250.19345703 -54.93884766 250.19345703 -55 249 C-54.67 248.67 -54.34 248.34 -54 248 C-53.76924918 246.65252916 -53.58846937 245.29622435 -53.4375 243.9375 C-53.293125 242.638125 -53.14875 241.33875 -53 240 C-53.66 240 -54.32 240 -55 240 C-54.47731534 237.23723823 -53.89130413 234.6739124 -53 232 C-53.66 232 -54.32 232 -55 232 C-54.67 231.01 -54.34 230.02 -54 229 C-53.9153183 226.48631945 -53.88398115 224.00130626 -53.90234375 221.48828125 C-53.9037587 220.76005661 -53.90517365 220.03183197 -53.90663147 219.28153992 C-53.91222341 216.95848461 -53.92477438 214.63552612 -53.9375 212.3125 C-53.94251604 210.73632952 -53.94707877 209.16015752 -53.95117188 207.58398438 C-53.9621902 203.72261902 -53.97944926 199.86132592 -54 196 C-54.33 196 -54.66 196 -55 196 C-55.08214133 191.81079233 -54.81876036 188.09380181 -54 184 C-54.33 183.34 -54.66 182.68 -55 182 C-54.34 182 -53.68 182 -53 182 C-53 180.02 -53 178.04 -53 176 C-53.66 176 -54.32 176 -55 176 C-54.67 175.01 -54.34 174.02 -54 173 C-53.93023057 170.83435675 -53.91554065 168.66665555 -53.9375 166.5 C-53.94652344 165.3553125 -53.95554688 164.210625 -53.96484375 163.03125 C-53.97644531 162.0309375 -53.98804688 161.030625 -54 160 C-54 157.35869864 -53.90912654 154.7507348 -53.78125 152.11328125 C-53.71357422 150.7065918 -53.71357422 150.7065918 -53.64453125 149.27148438 C-53.59683594 148.29501953 -53.54914062 147.31855469 -53.5 146.3125 C-53.45230469 145.32443359 -53.40460937 144.33636719 -53.35546875 143.31835938 C-53.23761924 140.87887453 -53.11910445 138.43942385 -53 136 C-53.66 136 -54.32 136 -55 136 C-54.70703125 134.01432292 -54.4140625 132.02864583 -54.12109375 130.04296875 C-53.86095201 127.7974658 -53.86095201 127.7974658 -55 125 C-54.34 125 -53.68 125 -53 125 C-53.0707373 124.26128662 -53.14147461 123.52257324 -53.21435547 122.76147461 C-54.11532644 112.07095523 -54.15211133 101.42157905 -54.13037109 90.69946289 C-54.12506373 87.59972112 -54.13031688 84.5001277 -54.13671875 81.40039062 C-54.14082998 67.57721634 -53.72015585 53.80396596 -53 40 C-53.66 40 -54.32 40 -55 40 C-53.36651168 27.49091838 -50.68696167 17.63144036 -41 9 C-34.52510676 4.5451884 -29.33007641 2.86668147 -21.484375 2.90234375 C-20.23398438 2.90556641 -18.98359375 2.90878906 -17.6953125 2.91210938 C-15.74238281 2.92467773 -15.74238281 2.92467773 -13.75 2.9375 C-11.77386719 2.94426758 -11.77386719 2.94426758 -9.7578125 2.95117188 C-6.50516259 2.96295684 -3.25260416 2.97940989 0 3 C0 2.01 0 1.02 0 0 Z M260 25 C261 27 261 27 261 27 Z M-54 237 C-53 239 -53 239 -53 239 Z " fill="#245FAD" transform="translate(100,71)"/>
<path d="M0 0 C0.91354824 -0.00384115 1.82709649 -0.00768229 2.76832801 -0.01163983 C3.77852018 -0.01077335 4.78871235 -0.00990687 5.82951641 -0.00901413 C7.43162402 -0.01347081 7.43162402 -0.01347081 9.06609744 -0.01801753 C12.66894146 -0.02673539 16.27175238 -0.02821538 19.87460613 -0.02970505 C22.44803724 -0.03433103 25.02146766 -0.03935539 27.59489727 -0.04475021 C34.60315377 -0.05834455 41.61140456 -0.06436002 48.61967206 -0.06876087 C52.99407177 -0.07152154 57.36846926 -0.07575858 61.74286747 -0.08026505 C73.84957554 -0.09245935 85.95628183 -0.10275821 98.06299591 -0.10614014 C98.83818201 -0.1063597 99.6133681 -0.10657927 100.41204469 -0.10680549 C101.577639 -0.10713291 101.577639 -0.10713291 102.76678067 -0.10746694 C104.34145947 -0.10791041 105.91613827 -0.10835697 107.49081707 -0.10880661 C108.27191559 -0.10902804 109.0530141 -0.10924947 109.85778227 -0.10947761 C122.51576269 -0.11342602 135.17368555 -0.13088063 147.83164374 -0.15416613 C160.82122604 -0.17786919 173.81077946 -0.19034152 186.80038375 -0.19150805 C194.09604378 -0.19242543 201.39162885 -0.19819331 208.68726826 -0.21632767 C215.54821876 -0.23332117 222.40902461 -0.23498909 229.26998997 -0.22618866 C231.79154751 -0.22541551 234.31311256 -0.22979737 236.83465099 -0.23964691 C240.27052991 -0.25228338 243.70589751 -0.24653455 247.14177227 -0.23606491 C248.64702228 -0.24814952 248.64702228 -0.24814952 250.18268138 -0.26047826 C256.29034535 -0.21679495 259.70556751 0.58524009 264.4261198 4.63142776 C267.37599901 8.17128281 266.813503 12.44059087 266.79637432 16.78125381 C266.79723034 17.56596054 266.79808636 18.35066727 266.79896832 19.15915298 C266.80062763 21.80512617 266.79509317 24.4510365 266.7896452 27.09700394 C266.78933897 29.01973245 266.78947216 30.94246109 266.79001045 32.86518955 C266.79023663 38.02397535 266.78443192 43.18273806 266.77740002 48.3415184 C266.77171397 53.17859344 266.77143738 58.0156628 266.7707243 62.85274124 C266.76547257 77.00813982 266.75151147 91.16353408 266.7386198 105.31892776 C266.7179948 136.93705276 266.6973698 168.55517776 266.6761198 201.13142776 C174.6061198 201.13142776 82.5361198 201.13142776 -12.3238802 201.13142776 C-12.4476302 169.43080276 -12.5713802 137.73017776 -12.6988802 105.06892776 C-12.75350422 95.05669876 -12.80812824 85.04446976 -12.86440754 74.72883987 C-12.89150715 62.50947952 -12.89150715 62.50947952 -12.89654255 56.79037857 C-12.90213617 52.79298325 -12.92463441 48.79606525 -12.95733356 44.79880142 C-12.99849645 39.6993299 -13.01082617 34.6005522 -13.00231385 29.50092995 C-13.00409371 27.62984464 -13.01598822 25.75873501 -13.03917098 23.88779247 C-13.0690635 21.3577321 -13.06181087 18.83035911 -13.0454073 16.30023575 C-13.06288328 15.56988397 -13.08035927 14.83953218 -13.09836483 14.08704853 C-13.00621226 8.79141243 -11.27223725 6.18372978 -7.80632651 2.47314936 C-5.21005737 0.1233372 -3.40027283 0.00534869 0 0 Z " fill="#D2E6FE" transform="translate(77.32388019561768,93.86857223510742)"/>
<path d="M0 0 C61 0 61 0 69 4 C73.06496852 8.06496852 75.85781621 12.6864268 78 18 C78 18.66 78 19.32 78 20 C77.3596431 20.00142502 76.71928619 20.00285004 76.05952454 20.00431824 C69.39186827 20.02401147 62.72512794 20.07827753 56.05786133 20.15258789 C53.56997245 20.17577856 51.08198526 20.19016607 48.59399414 20.19555664 C45.01646573 20.2048378 41.44048621 20.24581411 37.86328125 20.29296875 C36.19583611 20.28706978 36.19583611 20.28706978 34.4947052 20.28105164 C28.19136457 20.35259609 28.19136457 20.35259609 22.82104492 23.41918945 C19.93351287 27.5114406 19.86223516 29.73675706 19.82299805 34.75708008 C19.81642685 35.45159775 19.80985565 36.14611542 19.80308533 36.86167908 C19.78334542 39.16429753 19.77168804 41.46685074 19.76171875 43.76953125 C19.75764322 44.55580084 19.7535677 45.34207043 19.74936867 46.15216637 C19.72850459 50.31408806 19.71420458 54.47597676 19.70483398 58.63793945 C19.69377101 62.93554819 19.65937389 67.23263893 19.61966228 71.53006458 C19.59350848 74.83551492 19.58514326 78.14084163 19.58155251 81.44638634 C19.57668301 83.03041773 19.56505857 84.61444347 19.54651451 86.19837379 C19.52214881 88.41757786 19.52308257 90.63543927 19.5300293 92.85473633 C19.52416306 94.11667313 19.51829681 95.37860992 19.51225281 96.67878723 C20.08893397 100.6055773 21.18943014 102.24439558 24 105 C26.76709835 105.92236612 28.45167199 106.13409132 31.30900574 106.15821838 C32.18820175 106.1680072 33.06739777 106.17779602 33.97323608 106.18788147 C34.93492706 106.19363693 35.89661804 106.1993924 36.88745117 106.20532227 C37.90226059 106.21522186 38.91707001 106.22512146 39.96263123 106.23532104 C43.32271986 106.26695209 46.68282264 106.29169991 50.04296875 106.31640625 C52.37039053 106.33697438 54.69780857 106.35797082 57.02522278 106.37937927 C63.15559863 106.43461442 69.28600828 106.48401738 75.41644287 106.53222656 C81.67023735 106.58243101 87.92398267 106.6381226 94.17773438 106.69335938 C106.45178251 106.80095864 118.72587232 106.90189278 131 107 C131 115.91 131 124.82 131 134 C118.75 134.25 118.75 134.25 114.90527344 134.29785156 C113.39755371 134.34377441 113.39755371 134.34377441 111.859375 134.390625 C110.83295898 134.41157227 109.80654297 134.43251953 108.74902344 134.45410156 C105.32182216 135.13467191 104.14003392 136.28698527 102 139 C100.82409026 142.68451718 100.66518662 144.28254275 102.3125 147.8125 C103.81578588 150.08915626 103.81578588 150.08915626 106 151 C107.88472859 151.15344209 109.77427874 151.24959571 111.6640625 151.31640625 C112.78554688 151.35830078 113.90703125 151.40019531 115.0625 151.44335938 C116.238125 151.48267578 117.41375 151.52199219 118.625 151.5625 C119.80835938 151.60568359 120.99171875 151.64886719 122.2109375 151.69335938 C125.14050328 151.79967426 128.07015588 151.90170642 131 152 C131.06966439 159.32818856 131.12289432 166.65630512 131.15543652 173.98475838 C131.17105917 177.38807031 131.19223435 180.79115485 131.22631836 184.19433594 C131.26530034 188.11129997 131.2797374 192.02817351 131.29296875 195.9453125 C131.31619453 197.76906906 131.31619453 197.76906906 131.33988953 199.62966919 C131.34199944 210.25155899 131.34199944 210.25155899 128 215 C124.01669957 218.37483891 120.19496922 218.37438163 115.1875 218.1875 C114.49462891 218.17396484 113.80175781 218.16042969 113.08789062 218.14648438 C111.39158735 218.11138845 109.69568864 218.05758943 108 218 C107.84144531 217.38253906 107.68289063 216.76507813 107.51953125 216.12890625 C104.1881864 204.03667659 98.05385686 193.62753252 87.3125 186.6875 C75.05213567 180.00848514 61.4612543 177.75650209 47.7578125 180.6953125 C45.03115088 181.61449871 42.55998207 182.68938717 40 184 C39.14019531 184.42410156 38.28039062 184.84820312 37.39453125 185.28515625 C26.04625213 191.44859377 19.40748801 201.26900058 15.1875 213.3203125 C14.73712641 214.86534411 14.35666259 216.4306846 14 218 C9.38 218 4.76 218 0 218 C0 146.06 0 74.12 0 0 Z " fill="#D1E5FE" transform="translate(362,141)"/>
<path d="M0 0 C92.07 0 184.14 0 279 0 C279 14.85 279 29.7 279 45 C226.86 45 174.72 45 121 45 C118.69 39.72 116.38 34.44 114 29 C106.25050883 16.96355627 95.90385125 10.34584656 82 7 C79.32691683 6.81639429 76.79052614 6.71182482 74.125 6.75 C73.06575317 6.76341431 73.06575317 6.76341431 71.98510742 6.77709961 C59.29867082 7.05882579 48.62197695 11.37584531 39.125 20.0625 C32.63092135 27.02300418 28.82524787 36.00561186 26 45 C23.12397545 45.10852923 20.25209168 45.1875515 17.375 45.25 C16.56675781 45.28351563 15.75851563 45.31703125 14.92578125 45.3515625 C9.43629774 45.44082239 6.3291334 44.70307411 2 41 C-5.58991684 29.61512474 0 13.68291717 0 0 Z " fill="#D3E6FE" transform="translate(65,314)"/>
<path d="M0 0 C6.03852583 4.30748723 11.05676751 10.07186331 16.0625 15.5 C20.4438221 20.22354688 24.84031565 24.90365132 29.44262695 29.41357422 C31.08674579 31.08836403 32.6096611 32.83343532 34.125 34.625 C38.02484199 39.16737889 42.28146691 43.33530361 46.55712891 47.52001953 C52.86448825 53.73031386 52.86448825 53.73031386 53.359375 58.3671875 C52.94048768 62.60159193 52.03558095 63.97393503 49.25 67.125 C48.02410156 68.53072266 48.02410156 68.53072266 46.7734375 69.96484375 C45.8515477 70.97892253 44.92695184 71.99054626 44 73 C43.50790039 73.54027832 43.01580078 74.08055664 42.50878906 74.63720703 C39.94837542 77.44321804 37.37027143 80.23183514 34.77734375 83.0078125 C32.61922281 85.32240262 30.5082619 87.66895746 28.4375 90.0625 C25.1018091 93.91761722 21.65757156 97.670082 18.20263672 101.41796875 C14.40316046 105.54333877 10.67424891 109.72781759 6.97265625 113.94140625 C2.26143752 118.8578662 2.26143752 118.8578662 -1.21875 119.25 C-5.19950319 118.81375308 -7.41430057 118.48570197 -10.5625 115.875 C-12.39386426 112.21227147 -12.44776413 110.06862601 -12 106 C-10.35707914 103.69753405 -8.9301462 101.99580862 -6.9375 100.0625 C-5.9107835 99.00846943 -4.88473994 97.95378292 -3.859375 96.8984375 C-3.36115234 96.39666992 -2.86292969 95.89490234 -2.34960938 95.37792969 C-0.71679255 93.7108497 0.80439669 91.96768381 2.3125 90.1875 C6.48787927 85.35555004 10.90026706 80.7385325 15.2902832 76.10229492 C15.88284912 75.47299072 16.47541504 74.84368652 17.0859375 74.1953125 C17.6226709 73.62828613 18.1594043 73.06125977 18.71240234 72.47705078 C20.09883887 71.01118021 20.09883887 71.01118021 21 69 C20.3552387 69.00368717 19.71047739 69.00737434 19.04617786 69.01117325 C3.35547905 69.09952249 -12.33513322 69.1657086 -28.0260191 69.20724869 C-35.61403526 69.22787129 -43.20188535 69.25598591 -50.78979492 69.30175781 C-57.40366614 69.34163508 -64.01741708 69.36743502 -70.63140517 69.37635398 C-74.13330939 69.38156731 -77.63486953 69.39381359 -81.13666344 69.42292023 C-85.04649667 69.45515465 -88.95599374 69.45595883 -92.8659668 69.45410156 C-94.02618347 69.46848267 -95.18640015 69.48286377 -96.3817749 69.49768066 C-104.2322934 69.4572261 -104.2322934 69.4572261 -108.19587708 67.09661865 C-110.32202295 64.62576867 -110.93357526 63.48711474 -111.375 60.25 C-110.97844857 56.81322093 -110.15219287 54.86864081 -107.85489845 52.27288437 C-103.75189581 49.45728661 -98.47026611 50.17741846 -93.68237305 50.22705078 C-92.43318588 50.21642105 -91.18399872 50.20579132 -89.8969574 50.19483948 C-86.47932942 50.17157667 -83.06365143 50.17474291 -79.64610648 50.18970728 C-76.07189642 50.19909369 -72.49792085 50.17463093 -68.92378235 50.15377808 C-62.15940965 50.11944535 -55.39537505 50.11549917 -48.63093263 50.12250316 C-40.92832133 50.12899656 -33.22594731 50.10156476 -25.52340639 50.07130075 C-9.68223249 50.00981839 6.15869991 49.99088252 22 50 C21.2755656 49.27906646 21.2755656 49.27906646 20.53649616 48.54356861 C19.90419684 47.91308455 19.27189753 47.2826005 18.62043762 46.63301086 C17.99310636 46.00801351 17.36577509 45.38301615 16.71943378 44.73907948 C14.92354044 42.92266683 13.22673033 41.05300439 11.57421875 39.10546875 C7.11698868 33.94125553 2.40122142 29.03029895 -2.30273438 24.09179688 C-11.85543999 14.01192006 -11.85543999 14.01192006 -12.5 9.5 C-11.9231981 5.46238667 -10.85349783 3.85349783 -8 1 C-4.98221063 -0.50889469 -3.37677363 -0.50026276 0 0 Z " fill="#225DAD" transform="translate(224,135)"/>
<path d="M0 0 C7.5030312 -0.43863875 14.96134651 -0.81517705 22.46704102 -1.04370117 C25.01252069 -1.13888799 27.55697076 -1.26830354 30.09887695 -1.43334961 C50.5348291 -2.72635892 50.5348291 -2.72635892 56.11923218 1.66738892 C59.78228524 6.08763579 61.88211992 11.14251786 63.94424438 16.4548645 C65.55905038 20.34771621 67.75743219 23.79962575 70.01171875 27.34765625 C70.79908901 28.64214188 71.58363893 29.93834757 72.36523438 31.23632812 C73.54630004 33.18380081 74.72883431 35.13034817 75.91381836 37.07543945 C77.0961525 39.0180307 78.27307664 40.96381178 79.44921875 42.91015625 C80.13330811 44.03558838 80.81739746 45.16102051 81.5222168 46.32055664 C83 49 83 49 83 51 C55.61 51 28.22 51 0 51 C0 34.17 0 17.34 0 0 Z " fill="#CFE4FD" transform="translate(398,179)"/>
<path d="M0 0 C9.01647774 5.54621827 13.98765938 12.96297815 17.3125 22.9375 C18.19276973 34.71291153 17.31798484 44.59052073 9.4375 53.875 C2.45769836 61.08617628 -5.05080714 64.96235651 -15.125 65.375 C-23.82844935 65.08326427 -30.64302586 61.79801903 -36.93359375 55.86328125 C-43.59115914 48.5533041 -46.08287648 40.89348312 -46.0625 31.125 C-46.06088867 30.32545898 -46.05927734 29.52591797 -46.05761719 28.70214844 C-45.93218358 22.67395685 -44.9897113 18.06915937 -41.6875 12.9375 C-41.130625 11.90625 -40.57375 10.875 -40 9.8125 C-30.47463004 -2.02985184 -14.16936477 -6.64735631 0 0 Z " fill="#CFE4FD" transform="translate(437.6875,340.0625)"/>
<path d="M0 0 C8.55331996 5.73876596 14.27779787 12.24436978 17.4296875 22.109375 C19.55885341 33.42317816 17.54777472 44.00406334 11.203125 53.5390625 C6.19280007 59.71634918 -1.3872506 63.86083892 -9.171875 65.2265625 C-19.54812483 66.24042508 -27.17374425 63.46611043 -35.31640625 57.0625 C-41.6198537 50.82540463 -45.350964 42.34773877 -45.55297852 33.51806641 C-45.51724452 21.56575866 -43.02656596 14.11243287 -34.56640625 5.43359375 C-25.72104523 -2.7191452 -11.35624018 -5.47350315 0 0 Z " fill="#CFE4FD" transform="translate(152.171875,339.7734375)"/>
<path d="M0 0 C3.75212276 2.01502889 5.63644095 3.45466142 8 7 C8.76768116 11.6864257 8.40885085 15.19690011 6.25 19.4375 C2.80511628 23.36083979 1.30781468 23.89620518 -3.9375 24.3125 C-7.72776772 24.19273318 -10.05155934 23.52723485 -13 21 C-15.61525329 16.94184834 -16.70124748 13.80855413 -16 9 C-12.13269111 1.95597309 -8.315674 -1.47123463 0 0 Z " fill="#225BAA" transform="translate(427,359)"/>
<path d="M0 0 C3.10352458 1.60923497 5.21701424 3.00347267 7.375 5.75 C8.83243811 10.99677719 8.72165056 14.65623688 6.1875 19.375 C4.00257308 21.99691231 2.39051093 23.74838374 -1.05078125 24.37109375 C-5.31020603 24.49615458 -8.12290024 24.39700198 -11.5 21.625 C-15.32193569 17.61196753 -15.39055607 14.93731164 -15.359375 9.55078125 C-14.78039966 5.44131496 -13.00085071 3.78650423 -10 1 C-6.78501861 -0.6074907 -3.48701742 -0.47314549 0 0 Z " fill="#215AAB" transform="translate(142,359)"/>
<path d="M0 0 C0.33 0 0.66 0 1 0 C1 68.97 1 137.94 1 209 C4.63 209 8.26 209 12 209 C12.12375 208.05125 12.2475 207.1025 12.375 206.125 C13 203 13 203 15 201 C14.34 204.3 13.68 207.6 13 211 C8.38 211 3.76 211 -1 211 C-1.02336895 184.81790927 -1.04099883 158.63582011 -1.05181217 132.45372105 C-1.05696663 120.29669915 -1.06399315 108.13968375 -1.07543945 95.98266602 C-1.08541224 85.3855951 -1.09185962 74.78852888 -1.09408849 64.1914534 C-1.09539118 58.58134533 -1.09844914 52.97125069 -1.10573006 47.36114693 C-1.11253119 42.07777987 -1.11460862 36.79443174 -1.11310768 31.51106071 C-1.11338217 29.57493359 -1.11536296 27.63880582 -1.11920547 25.7026825 C-1.12420671 23.05209593 -1.12297469 20.40158015 -1.12025452 17.75099182 C-1.12316736 16.99123584 -1.1260802 16.23147986 -1.12908131 15.44870096 C-1.11469101 10.23358831 -0.64483023 5.17591245 0 0 Z " fill="#F4FAFE" transform="translate(363,148)"/>
<path d="M0 0 C7.5030312 -0.43863875 14.96134651 -0.81517705 22.46704102 -1.04370117 C25.01252069 -1.13888799 27.55697076 -1.26830354 30.09887695 -1.43334961 C50.55813357 -2.72783343 50.55813357 -2.72783343 56.13433838 1.69155884 C59.80148881 6.13152152 61.92721966 11.18416798 63.98397827 16.51931763 C65.47670245 20.16389968 67.49891681 23.37926794 69.609375 26.69140625 C70.31045103 27.84900393 71.0084379 29.00847888 71.703125 30.16992188 C72.74732514 31.90062383 73.79183904 33.63115151 74.84375 35.35717773 C75.89787755 37.089194 76.94134202 38.82768619 77.984375 40.56640625 C78.58991211 41.56615479 79.19544922 42.56590332 79.81933594 43.59594727 C80.40376465 44.78595337 80.40376465 44.78595337 81 46 C80.505 46.99 80.505 46.99 80 48 C74.38376053 39.07733144 68.8291403 30.12279868 63.3984375 21.0859375 C63.01655273 20.49603027 62.63466797 19.90612305 62.24121094 19.29833984 C61 17 61 17 59.86035156 13.47119141 C58.33059066 9.25630126 56.7198864 5.67804618 53 3 C44.71763427 0.45227732 35.55020214 1.36804252 27 1.625 C24.57947681 1.64701948 22.15888725 1.66271224 19.73828125 1.671875 C13.81868368 1.69621879 7.92297442 1.85107464 2 2 C2 17.51 2 33.02 2 49 C1.34 49 0.68 49 0 49 C0 32.83 0 16.66 0 0 Z " fill="#DDEBF9" transform="translate(398,179)"/>
<path d="M0 0 C0.33 0 0.66 0 1 0 C1.09796875 0.61488281 1.1959375 1.22976562 1.296875 1.86328125 C1.44640625 2.67152344 1.5959375 3.47976562 1.75 4.3125 C1.88921875 5.11300781 2.0284375 5.91351563 2.171875 6.73828125 C3.23734225 9.64821302 4.36796994 10.40090218 7 12 C9.50680927 12.45492437 9.50680927 12.45492437 12.26446533 12.39872742 C13.3301474 12.41126556 14.39582947 12.42380371 15.49380493 12.4367218 C17.23952286 12.43456917 17.23952286 12.43456917 19.02050781 12.43237305 C20.25004181 12.4425647 21.47957581 12.45275635 22.74636841 12.46325684 C26.11391972 12.48827035 29.48103487 12.5001121 32.8486414 12.50611091 C36.36943821 12.51549282 39.8901088 12.54169602 43.41082764 12.56611633 C50.07595444 12.60979017 56.74105677 12.63833163 63.40628314 12.66143972 C70.99517953 12.6884867 78.58394899 12.73239848 86.17275476 12.77772844 C101.78177127 12.87058734 117.39081168 12.9422623 133 13 C132.67 13.99 132.34 14.98 132 16 C116.08356415 15.93941561 100.16730641 15.86188058 84.25105953 15.76428509 C76.86050278 15.71936077 69.46999386 15.67993842 62.0793457 15.65356445 C55.63603071 15.63055704 49.1928675 15.59712855 42.74967295 15.55129844 C39.33949553 15.52740297 35.92946808 15.50865023 32.51920891 15.50238609 C28.70780988 15.49276295 24.89695786 15.4647231 21.08569336 15.43237305 C19.96071945 15.43380814 18.83574554 15.43524323 17.67668152 15.4367218 C11.70376175 15.36502742 7.22607978 15.0026512 2 12 C-0.45340737 8.54989588 -1.07899593 6.85315609 -0.6875 2.625 C-0.460625 1.75875 -0.23375 0.8925 0 0 Z " fill="#E8F1FC" transform="translate(112,191)"/>
<path d="M0 0 C0.33 0.99 0.66 1.98 1 3 C1.66 3 2.32 3 3 3 C3.78260452 17.2545823 4.10885962 31.47677248 4.125 45.75 C4.12749756 46.51727417 4.12999512 47.28454834 4.13256836 48.07507324 C4.15388534 56.04975498 4.01608403 63.93613262 3.25390625 71.88183594 C2.71593907 78.48848667 2.61985994 85.12549623 2.4375 91.75 C2.3941755 93.2369878 2.35055752 94.72396708 2.30664062 96.2109375 C2.20105331 99.80720005 2.0994039 103.40356058 2 107 C1.67 107 1.34 107 1 107 C0.505 54.035 0.505 54.035 0 0 Z " fill="#19519F" transform="translate(507,244)"/>
<path d="M0 0 C2.70732002 0.07962706 4.47568002 0.53870569 6.52734375 2.34375 C10.19944589 6.45500939 15 12.23422278 15 18 C14.3596431 18.00586624 13.71928619 18.01173248 13.05952454 18.01777649 C6.39201282 18.08173193 -0.2750172 18.16615759 -6.94213867 18.26245117 C-9.43002978 18.29569657 -11.91799624 18.32372966 -14.40600586 18.34643555 C-17.98323668 18.3799877 -21.55977719 18.43230592 -25.13671875 18.48828125 C-26.80416389 18.49786613 -26.80416389 18.49786613 -28.5052948 18.50764465 C-29.54599625 18.52743881 -30.58669769 18.54723297 -31.65893555 18.56762695 C-33.02794258 18.58428154 -33.02794258 18.58428154 -34.42460632 18.60127258 C-37.50088775 19.07754841 -39.44545807 20.2629446 -42 22 C-41.04837011 19.62092528 -40.4271438 18.26790707 -38.22564697 16.88711548 C-35.71648398 15.88699401 -33.83597082 15.72372586 -31.13964844 15.68115234 C-30.17895447 15.66128265 -29.2182605 15.64141296 -28.22845459 15.62094116 C-27.19915833 15.60938995 -26.16986206 15.59783875 -25.109375 15.5859375 C-23.51974945 15.55688828 -23.51974945 15.55688828 -21.89801025 15.5272522 C-18.51542187 15.46750446 -15.13279937 15.4210898 -11.75 15.375 C-9.45571438 15.33681584 -7.16144303 15.29776385 -4.8671875 15.2578125 C0.75508162 15.16180685 6.37743677 15.07674517 12 15 C11.07891529 13.38179167 10.14715137 11.76965891 9.2109375 10.16015625 C8.69321777 9.26176025 8.17549805 8.36336426 7.64208984 7.43774414 C5.46856692 4.2110676 3.37251768 2.84685492 0 1 C0 0.67 0 0.34 0 0 Z " fill="#F2F8FE" transform="translate(425,143)"/>
<path d="M0 0 C39.93 0 79.86 0 121 0 C121 0.99 121 1.98 121 3 C120.01 2.67 119.02 2.34 118 2 C116.38880106 1.89899733 114.77381712 1.85379035 113.15950012 1.84178162 C111.66400887 1.82709839 111.66400887 1.82709839 110.13830566 1.81211853 C108.49940369 1.80348534 108.49940369 1.80348534 106.82739258 1.79467773 C105.10035347 1.77982834 105.10035347 1.77982834 103.33842468 1.76467896 C99.52381462 1.73303198 95.7091921 1.70829379 91.89453125 1.68359375 C89.25322644 1.66302699 86.61192494 1.6420306 83.97062683 1.62062073 C77.72337523 1.57070791 71.47609813 1.52576385 65.22879666 1.48259836 C58.1163775 1.43321393 51.00400441 1.37830027 43.89162982 1.32291877 C29.26113017 1.2091204 14.63058467 1.10227668 0 1 C0 0.67 0 0.34 0 0 Z " fill="#C6DEFA" transform="translate(121,206)"/>
<path d="M0 0 C19.8 0 39.6 0 60 0 C60 0.99 60 1.98 60 3 C53.22295389 2.88149244 46.44604379 2.75669084 39.66918945 2.62768555 C37.36778333 2.58459772 35.06635059 2.54290648 32.76489258 2.50268555 C29.44083666 2.4443435 26.11691153 2.38083954 22.79296875 2.31640625 C21.27040718 2.29133751 21.27040718 2.29133751 19.71708679 2.26576233 C13.10721389 2.13126196 6.57544636 1.68547863 0 1 C0 0.67 0 0.34 0 0 Z " fill="#0F4A9E" transform="translate(296,375)"/>
<path d="M0 0 C-0.66386719 0.30292969 -1.32773438 0.60585938 -2.01171875 0.91796875 C-9.76352344 4.59583229 -14.40840774 8.0005445 -18 16 C-18.53625 16.845625 -19.0725 17.69125 -19.625 18.5625 C-22.42939697 25.57349243 -22.05626996 33.52734888 -22 41 C-24.46566184 38.53433816 -24.30535131 37.01956747 -24.38110352 33.64306641 C-24.34659963 21.52806265 -21.89427568 14.10740552 -13.3125 5.14453125 C-9.23199451 1.36041383 -5.72510846 -1.85041467 0 0 Z " fill="#E8F0FA" transform="translate(131,340)"/>
<path d="M0 0 C3.68590455 1.22863485 3.90252456 2.09765727 5.71484375 5.42578125 C6.48900635 6.82534058 6.48900635 6.82534058 7.27880859 8.25317383 C8.09986084 9.76754028 8.09986084 9.76754028 8.9375 11.3125 C13.89878904 20.31252432 19.02895013 29.16525467 24.48022461 37.87817383 C24.95854736 38.65700928 25.43687012 39.43584473 25.9296875 40.23828125 C26.35491699 40.91930908 26.78014648 41.60033691 27.21826172 42.30200195 C27.47623535 42.86234131 27.73420898 43.42268066 28 44 C27.67 44.66 27.34 45.32 27 46 C18.92432719 33.16996449 10.99267234 20.26957884 3.4375 7.125 C3.09058105 6.52349121 2.74366211 5.92198242 2.38623047 5.30224609 C0 1.12053314 0 1.12053314 0 0 Z " fill="#ECF3FB" transform="translate(451,181)"/>
<path d="M0 0 C6.15234375 -0.09765625 6.15234375 -0.09765625 8 0 C8.33 0.33 8.66 0.66 9 1 C11.69235776 1.23678716 14.36498156 1.42198025 17.0625 1.5625 C18.20041992 1.62727539 18.20041992 1.62727539 19.36132812 1.69335938 C21.24065438 1.79973633 23.12030244 1.90039934 25 2 C21.84685215 4.10209857 21.13896919 4.2434761 17.55078125 4.1953125 C16.27944336 4.18564453 16.27944336 4.18564453 14.98242188 4.17578125 C14.10134766 4.15902344 13.22027344 4.14226562 12.3125 4.125 C11.41982422 4.11597656 10.52714844 4.10695313 9.60742188 4.09765625 C7.40467686 4.07409748 5.20247412 4.04120329 3 4 C2.34 6.31 1.68 8.62 1 11 C0.34 11 -0.32 11 -1 11 C-1.33 11.66 -1.66 12.32 -2 13 C-1.85769192 11.58297487 -1.71099254 10.1663904 -1.5625 8.75 C-1.48128906 7.96109375 -1.40007812 7.1721875 -1.31640625 6.359375 C-1.02365007 4.17635361 -0.57935581 2.1226818 0 0 Z " fill="#376BB2" transform="translate(186,375)"/>
<path d="M0 0 C10.56 0 21.12 0 32 0 C32 0.33 32 0.66 32 1 C21.54960437 3.52394785 11.60115118 2.8205912 1 2 C0.67 1.34 0.34 0.68 0 0 Z " fill="#144EA1" transform="translate(194,375)"/>
<path d="M0 0 C18.05263158 15.10526316 18.05263158 15.10526316 22 23 C19.36 22.67 16.72 22.34 14 22 C14.99 21.34 15.98 20.68 17 20 C16.52054932 19.50072998 16.04109863 19.00145996 15.54711914 18.48706055 C13.38053745 16.22530806 11.22146522 13.95652292 9.0625 11.6875 C7.93038086 10.50897461 7.93038086 10.50897461 6.77539062 9.30664062 C6.05673828 8.54931641 5.33808594 7.79199219 4.59765625 7.01171875 C3.93258057 6.31522217 3.26750488 5.61872559 2.58227539 4.90112305 C1 3 1 3 0 0 Z " fill="#EFF5FC" transform="translate(225,163)"/>
<path d="M0 0 C6.53007724 2.15014738 10.7031583 7.15925477 14.1796875 12.97265625 C15.74090488 16.35529392 16.3367491 19.29575992 16 23 C14.09058889 20.13588333 12.79561319 17.37693629 11.375 14.25 C8.82344028 9.03951294 6.11544611 5.72930403 1.5390625 2.20703125 C1.03117187 1.80871094 0.52328125 1.41039062 0 1 C0 0.67 0 0.34 0 0 Z " fill="#EBF3FB" transform="translate(438,342)"/>
<path d="M0 0 C5.94 0 11.88 0 18 0 C11.31914894 3.34042553 11.31914894 3.34042553 7 2 C6.67 2.66 6.34 3.32 6 4 C5.38125 3.835 4.7625 3.67 4.125 3.5 C2.03936614 2.92365356 2.03936614 2.92365356 0 3 C0 2.01 0 1.02 0 0 Z " fill="#1D55A5" transform="translate(274,375)"/>
<path d="M0 0 C0.99 0 1.98 0 3 0 C3 0.66 3 1.32 3 2 C4.98 2 6.96 2 9 2 C9 2.33 9 2.66 9 3 C6.69 3 4.38 3 2 3 C1.67 5.97 1.34 8.94 1 12 C-1.49388574 7.01222852 -0.88836125 5.33016752 0 0 Z " fill="#366CB3" transform="translate(470,375)"/>
<path d="M0 0 C2.97 0.495 2.97 0.495 6 1 C5.67 3.31 5.34 5.62 5 8 C4.67 8 4.34 8 4 8 C4 6.35 4 4.7 4 3 C-0.62 3 -5.24 3 -10 3 C-10 2.67 -10 2.34 -10 2 C-6.7 1.67 -3.4 1.34 0 1 C0 0.67 0 0.34 0 0 Z " fill="#4677BC" transform="translate(86,375)"/>
<path d="M0 0 C4.09189762 1.36396587 4.61547327 3.34848983 6.6875 7.0625 C7.31011719 8.16722656 7.93273437 9.27195313 8.57421875 10.41015625 C9.04472656 11.26480469 9.51523437 12.11945313 10 13 C9.34 13.66 8.68 14.32 8 15 C6.66407203 12.6889639 5.33115569 10.37628245 4 8.0625 C3.6184375 7.40314453 3.236875 6.74378906 2.84375 6.06445312 C0 1.11328125 0 1.11328125 0 0 Z " fill="#E3EDF8" transform="translate(451,181)"/>
<path d="M0 0 C0.66 0.33 1.32 0.66 2 1 C1.01 1.33 0.02 1.66 -1 2 C-0.67 2.99 -0.34 3.98 0 5 C-0.763125 5.2475 -1.52625 5.495 -2.3125 5.75 C-5.2364045 7.10995558 -6.30004356 8.31585826 -8 11 C-8.66 10.67 -9.32 10.34 -10 10 C-8.7121669 8.51749445 -7.41960936 7.03909182 -6.125 5.5625 C-5.40570313 4.73878906 -4.68640625 3.91507812 -3.9453125 3.06640625 C-2 1 -2 1 0 0 Z " fill="#15429E" transform="translate(394,329)"/>
<path d="M0 0 C1.4540625 0.0309375 1.4540625 0.0309375 2.9375 0.0625 C4.1755014 3.63894848 3.68676071 6.39944766 2.9375 10.0625 C2.6075 10.0625 2.2775 10.0625 1.9375 10.0625 C1.69 8.94875 1.4425 7.835 1.1875 6.6875 C0.32744661 3.01634802 0.32744661 3.01634802 -2.1875 1.625 C-2.80625 1.439375 -3.425 1.25375 -4.0625 1.0625 C-3.0625 0.0625 -3.0625 0.0625 0 0 Z " fill="#3B6FB4" transform="translate(373.0625,375.9375)"/>
<path d="M0 0 C0.33 0.66 0.66 1.32 1 2 C-3.29 2 -7.58 2 -12 2 C-8.04624984 -0.63583344 -4.57373889 -1.79682599 0 0 Z " fill="#386BB1" transform="translate(230,376)"/>
<path d="M0 0 C1.79244141 0.01740234 1.79244141 0.01740234 3.62109375 0.03515625 C5.41740234 0.04869141 5.41740234 0.04869141 7.25 0.0625 C8.17683594 0.07410156 9.10367187 0.08570313 10.05859375 0.09765625 C10.05859375 0.42765625 10.05859375 0.75765625 10.05859375 1.09765625 C8.479334 1.48945733 6.89490581 1.86046361 5.30859375 2.22265625 C4.426875 2.43148438 3.54515625 2.6403125 2.63671875 2.85546875 C-0.27016118 3.12853929 -1.50801973 2.63273653 -3.94140625 1.09765625 C-2.94140625 0.09765625 -2.94140625 0.09765625 0 0 Z " fill="#1651A2" transform="translate(364.94140625,374.90234375)"/>
<path d="M0 0 C3.45201639 1.47721422 5.64961936 3.43794001 8.25 6.125 C8.95640625 6.84945312 9.6628125 7.57390625 10.390625 8.3203125 C11.18726563 9.15175781 11.18726563 9.15175781 12 10 C11.34 10.66 10.68 11.32 10 12 C8.51814875 10.37744772 7.03959744 8.75188112 5.5625 7.125 C4.73878906 6.22007812 3.91507813 5.31515625 3.06640625 4.3828125 C1 2 1 2 0 0 Z " fill="#EBF3FB" transform="translate(213,151)"/>
<path d="M0 0 C3.3 0 6.6 0 10 0 C10 0.99 10 1.98 10 3 C6.7 2.67 3.4 2.34 0 2 C0 1.34 0 0.68 0 0 Z " fill="#1B54A4" transform="translate(346,375)"/>
<path d="M0 0 C0.66 0 1.32 0 2 0 C3.34423339 1.65788785 4.67618483 3.32576317 6 5 C8.12603185 6.76323505 8.12603185 6.76323505 10 8 C5.17965738 7.58682778 3.09007389 5.61980085 0 2 C0 1.34 0 0.68 0 0 Z " fill="#E1EDF9" transform="translate(126,376)"/>
<path d="M0 0 C0.99 0.33 1.98 0.66 3 1 C-0.61223321 3.43615728 -4.24436571 5.79080336 -8 8 C-6.49860488 3.79609368 -3.82724957 2.10889262 0 0 Z " fill="#EDF3FB" transform="translate(408,341)"/>
<path d="M0 0 C4 2 4 2 6 5 C5.67 6.32 5.34 7.64 5 9 C3.35 6.03 1.7 3.06 0 0 Z " fill="#1C54A2" transform="translate(446,138)"/>
<path d="M0 0 C0.33 0 0.66 0 1 0 C0.25 6.75 0.25 6.75 -2 9 C-3 6 -3 6 -1.5625 2.8125 C-1.046875 1.884375 -0.53125 0.95625 0 0 Z " fill="#2159A5" transform="translate(183,389)"/>
<path d="M0 0 C2.97 0.495 2.97 0.495 6 1 C6.33 2.65 6.66 4.3 7 6 C5.83054208 5.19152271 4.66449539 4.37810888 3.5 3.5625 C2.8503125 3.11003906 2.200625 2.65757813 1.53125 2.19140625 C1.0259375 1.79824219 0.520625 1.40507813 0 1 C0 0.67 0 0.34 0 0 Z " fill="#225BA8" transform="translate(345,80)"/>
<path d="M0 0 C-4.1795645 2.78637633 -6.14668677 1.79562512 -11 1 C-11 0.67 -11 0.34 -11 0 C-3.57142857 -1.28571429 -3.57142857 -1.28571429 0 0 Z " fill="#1B55A4" transform="translate(155,420)"/>
<path d="M0 0 C3 1 3 1 5 4 C4.625 6.1875 4.625 6.1875 4 8 C0 2.25 0 2.25 0 0 Z " fill="#225AA7" transform="translate(489,211)"/>
<path d="M0 0 C0.33 1.32 0.66 2.64 1 4 C0.34 3.01 -0.32 2.02 -1 1 C-0.67 0.67 -0.34 0.34 0 0 Z " fill="#3F75BB" transform="translate(45,283)"/>
<path d="M0 0 C0.99 0.495 0.99 0.495 2 1 C1.67 1.99 1.34 2.98 1 4 C0.67 2.68 0.34 1.36 0 0 Z " fill="#4172B2" transform="translate(504,230)"/>
<path d="M0 0 C0.33 0.66 0.66 1.32 1 2 C0.34 2.66 -0.32 3.32 -1 4 C-0.67 2.68 -0.34 1.36 0 0 Z " fill="#3B6CAC" transform="translate(63,71)"/>
<path d="M0 0 C0 3 0 3 0 3 Z " fill="#3B68A4" transform="translate(111,420)"/>
<path d="M0 0 C1 4 1 4 1 4 Z " fill="#3F70B2" transform="translate(378,397)"/>
<path d="M0 0 C1 4 1 4 1 4 Z " fill="#4176BC" transform="translate(45,347)"/>
<path d="M0 0 C4 1 4 1 4 1 Z " fill="#3B6CAC" transform="translate(198,72)"/>
<path d="M0 0 C3 1 3 1 3 1 Z " fill="#3B6CAE" transform="translate(116,420)"/>
<path d="M0 0 C0.66 0 1.32 0 2 0 C1.67 0.66 1.34 1.32 1 2 C0.67 1.34 0.34 0.68 0 0 Z " fill="#4273B6" transform="translate(90,390)"/>
<path d="" fill="#4376BA" transform="translate(0,0)"/>
<path d="" fill="#3F75BB" transform="translate(0,0)"/>
<path d="" fill="#3E75BC" transform="translate(0,0)"/>
<path d="" fill="#3F74BB" transform="translate(0,0)"/>
<path d="" fill="#3E74BB" transform="translate(0,0)"/>
<path d="M0 0 C0.66 0 1.32 0 2 0 C1.67 0.66 1.34 1.32 1 2 C0.67 1.34 0.34 0.68 0 0 Z " fill="#3B6AAA" transform="translate(427,121)"/>
<path d="" fill="#4074BB" transform="translate(0,0)"/>
<path d="M0 0 C3 1 3 1 3 1 Z " fill="#3D6AAA" transform="translate(255,72)"/>
<path d="M0 0 C3 1 3 1 3 1 Z " fill="#3E6EAF" transform="translate(73,72)"/>
<path d="M0 0 C3 1 3 1 3 1 Z " fill="#3D6BAC" transform="translate(234,71)"/>
<path d="M0 0 C0.99 0.495 0.99 0.495 2 1 C1.01 1.495 1.01 1.495 0 2 C0 1.34 0 0.68 0 0 Z " fill="#3D6DAD" transform="translate(92,71)"/>
<path d="M0 0 C2 1 2 1 2 1 Z " fill="#315A8E" transform="translate(14,452)"/>
<path d="M0 0 C2 1 2 1 2 1 Z " fill="#2A4C79" transform="translate(156,450)"/>
<path d="M0 0 C2 1 2 1 2 1 Z " fill="#335B90" transform="translate(156,434)"/>
<path d="M0 0 C2 1 2 1 2 1 Z " fill="#3C6BAE" transform="translate(122,422)"/>
<path d="M0 0 C2 1 2 1 2 1 Z " fill="#396AAB" transform="translate(119,421)"/>
<path d="M0 0 C2 1 2 1 2 1 Z " fill="#3E6CAB" transform="translate(401,420)"/>
<path d="M0 0 C2 1 2 1 2 1 Z " fill="#3C69A6" transform="translate(108,420)"/>
<path d="M0 0 C2 1 2 1 2 1 Z " fill="#3D6BA9" transform="translate(399,419)"/>
<path d="M0 0 C2 1 2 1 2 1 Z " fill="#3E6CAD" transform="translate(394,416)"/>
<path d="" fill="#3F6EAF" transform="translate(0,0)"/>
<path d="M0 0 C2 1 2 1 2 1 Z " fill="#3C6AA9" transform="translate(14,404)"/>
<path d="M0 0 C2 1 2 1 2 1 Z " fill="#406FB3" transform="translate(381,403)"/>
<path d="" fill="#3E6FB2" transform="translate(0,0)"/>
<path d="" fill="#3F70B4" transform="translate(0,0)"/>
<path d="M0 0 C2 1 2 1 2 1 Z " fill="#4071B3" transform="translate(90,396)"/>
<path d="M0 0 C2 1 2 1 2 1 Z " fill="#3D6FB2" transform="translate(255,382)"/>
<path d="M0 0 C2 1 2 1 2 1 Z " fill="#467ABC" transform="translate(87,379)"/>
<path d="" fill="#4174B8" transform="translate(0,0)"/>
<path d="M0 0 C2 1 2 1 2 1 Z " fill="#3F73B7" transform="translate(14,324)"/>
<path d="" fill="#4076BC" transform="translate(0,0)"/>
<path d="M0 0 C2 1 2 1 2 1 Z " fill="#3E73B8" transform="translate(14,316)"/>
<path d="" fill="#3E72BB" transform="translate(0,0)"/>
<path d="" fill="#3D72BA" transform="translate(0,0)"/>
<path d="M0 0 C2 1 2 1 2 1 Z " fill="#3F73B8" transform="translate(14,300)"/>
<path d="" fill="#3D74BB" transform="translate(0,0)"/>
<path d="" fill="#3F74BB" transform="translate(0,0)"/>
<path d="M0 0 C2 1 2 1 2 1 Z " fill="#3E72B7" transform="translate(14,292)"/>
<path d="" fill="#3F73BC" transform="translate(0,0)"/>
<path d="" fill="#3F76BD" transform="translate(0,0)"/>
<path d="" fill="#3D72BB" transform="translate(0,0)"/>
<path d="M0 0 C2 1 2 1 2 1 Z " fill="#3E72B6" transform="translate(14,236)"/>
<path d="" fill="#3F75BC" transform="translate(0,0)"/>
<path d="M0 0 C2 1 2 1 2 1 Z " fill="#3E72B6" transform="translate(14,212)"/>
<path d="" fill="#3D72BA" transform="translate(0,0)"/>
<path d="" fill="#4172B2" transform="translate(0,0)"/>
<path d="" fill="#3F75BC" transform="translate(0,0)"/>
<path d="M0 0 C2 1 2 1 2 1 Z " fill="#3D71B6" transform="translate(14,188)"/>
<path d="M0 0 C2 1 2 1 2 1 Z " fill="#3D71B5" transform="translate(14,156)"/>
<path d="M0 0 C2 1 2 1 2 1 Z " fill="#3D71B6" transform="translate(14,148)"/>
<path d="" fill="#3F75BB" transform="translate(0,0)"/>
<path d="M0 0 C2 1 2 1 2 1 Z " fill="#3B6BAB" transform="translate(424,120)"/>
<path d="M0 0 C2 1 2 1 2 1 Z " fill="#3D6FB4" transform="translate(14,108)"/>
<path d="" fill="#4076B9" transform="translate(0,0)"/>
<path d="M0 0 C2 1 2 1 2 1 Z " fill="#3D70B4" transform="translate(14,100)"/>
<path d="" fill="#3F73B8" transform="translate(0,0)"/>
<path d="M0 0 C2 1 2 1 2 1 Z " fill="#3C6FB2" transform="translate(14,92)"/>
<path d="M0 0 C2 1 2 1 2 1 Z " fill="#3B6DB0" transform="translate(14,84)"/>
<path d="M0 0 C2 1 2 1 2 1 Z " fill="#3C6DAF" transform="translate(62,76)"/>
<path d="M0 0 C2 1 2 1 2 1 Z " fill="#3B6CAE" transform="translate(14,76)"/>
<path d="" fill="#3D6EAF" transform="translate(0,0)"/>
<path d="" fill="#3D6AAA" transform="translate(0,0)"/>
<path d="" fill="#3C6AAA" transform="translate(0,0)"/>
<path d="" fill="#3D6BAA" transform="translate(0,0)"/>
<path d="M0 0 C2 1 2 1 2 1 Z " fill="#3D6AAA" transform="translate(134,72)"/>
<path d="M0 0 C2 1 2 1 2 1 Z " fill="#3B6AAA" transform="translate(127,72)"/>
<path d="" fill="#3D6DAD" transform="translate(0,0)"/>
<path d="M0 0 C2 1 2 1 2 1 Z " fill="#3C6AAC" transform="translate(80,72)"/>
<path d="" fill="#3A6BAB" transform="translate(0,0)"/>
<path d="M0 0 C2 1 2 1 2 1 Z " fill="#3D6DAC" transform="translate(252,71)"/>
<path d="M0 0 C2 1 2 1 2 1 Z " fill="#3C6CAB" transform="translate(147,71)"/>
<path d="M0 0 C2 1 2 1 2 1 Z " fill="#264772" transform="translate(156,26)"/>
<path d="" fill="#2E5589" transform="translate(0,0)"/>
<path d="" fill="#2C4E78" transform="translate(0,0)"/>
<path d="" fill="#213E62" transform="translate(0,0)"/>
<path d="" fill="#2E5582" transform="translate(0,0)"/>
<path d="" fill="#325E94" transform="translate(0,0)"/>
<path d="" fill="#305385" transform="translate(0,0)"/>
<path d="" fill="#2A4974" transform="translate(0,0)"/>
<path d="" fill="#335A8D" transform="translate(0,0)"/>
<path d="" fill="#356199" transform="translate(0,0)"/>
<path d="" fill="#376199" transform="translate(0,0)"/>
<path d="" fill="#37649E" transform="translate(0,0)"/>
<path d="" fill="#355F95" transform="translate(0,0)"/>
<path d="" fill="#365E95" transform="translate(0,0)"/>
<path d="" fill="#305586" transform="translate(0,0)"/>
<path d="" fill="#3C6DAC" transform="translate(0,0)"/>
<path d="" fill="#3E6BAD" transform="translate(0,0)"/>
<path d="" fill="#3A65A1" transform="translate(0,0)"/>
<path d="" fill="#3C6DAB" transform="translate(0,0)"/>
<path d="" fill="#3967A2" transform="translate(0,0)"/>
<path d="" fill="#3B6BAC" transform="translate(0,0)"/>
<path d="" fill="#3C6BAD" transform="translate(0,0)"/>
<path d="" fill="#3D6CAD" transform="translate(0,0)"/>
<path d="" fill="#3F6BA9" transform="translate(0,0)"/>
<path d="" fill="#38639A" transform="translate(0,0)"/>
<path d="" fill="#3C6CAB" transform="translate(0,0)"/>
<path d="" fill="#3D6BAA" transform="translate(0,0)"/>
<path d="" fill="#3E6AAA" transform="translate(0,0)"/>
<path d="" fill="#335A8E" transform="translate(0,0)"/>
<path d="" fill="#3969A7" transform="translate(0,0)"/>
<path d="" fill="#3966A0" transform="translate(0,0)"/>
<path d="" fill="#4171B2" transform="translate(0,0)"/>
<path d="" fill="#3F6FB0" transform="translate(0,0)"/>
<path d="" fill="#3E6EAE" transform="translate(0,0)"/>
<path d="" fill="#3E6DB1" transform="translate(0,0)"/>
<path d="" fill="#3C69A7" transform="translate(0,0)"/>
<path d="" fill="#426FB4" transform="translate(0,0)"/>
<path d="" fill="#4271B2" transform="translate(0,0)"/>
<path d="" fill="#3C6DAC" transform="translate(0,0)"/>
<path d="" fill="#3F72B2" transform="translate(0,0)"/>
<path d="" fill="#4070AF" transform="translate(0,0)"/>
<path d="" fill="#4071B4" transform="translate(0,0)"/>
<path d="" fill="#3F71B3" transform="translate(0,0)"/>
<path d="" fill="#4072B3" transform="translate(0,0)"/>
<path d="" fill="#4072B6" transform="translate(0,0)"/>
<path d="" fill="#4272B7" transform="translate(0,0)"/>
<path d="" fill="#4476B7" transform="translate(0,0)"/>
<path d="" fill="#3E72B4" transform="translate(0,0)"/>
<path d="" fill="#467BBE" transform="translate(0,0)"/>
<path d="" fill="#4576BB" transform="translate(0,0)"/>
<path d="" fill="#4273B5" transform="translate(0,0)"/>
<path d="" fill="#4073B5" transform="translate(0,0)"/>
<path d="" fill="#4475BA" transform="translate(0,0)"/>
<path d="" fill="#3D6FB1" transform="translate(0,0)"/>
<path d="" fill="#4173B7" transform="translate(0,0)"/>
<path d="" fill="#4173B6" transform="translate(0,0)"/>
<path d="" fill="#4376B8" transform="translate(0,0)"/>
<path d="" fill="#4273B6" transform="translate(0,0)"/>
<path d="" fill="#4273B8" transform="translate(0,0)"/>
<path d="" fill="#4171B5" transform="translate(0,0)"/>
<path d="" fill="#4375B6" transform="translate(0,0)"/>
<path d="" fill="#4375B6" transform="translate(0,0)"/>
<path d="" fill="#4677B8" transform="translate(0,0)"/>
<path d="" fill="#3D71B3" transform="translate(0,0)"/>
<path d="" fill="#3F6EAE" transform="translate(0,0)"/>
<path d="" fill="#3C6CAA" transform="translate(0,0)"/>
<path d="" fill="#3D6DAD" transform="translate(0,0)"/>
<path d="" fill="#4875B9" transform="translate(0,0)"/>
<path d="" fill="#3F72B5" transform="translate(0,0)"/>
<path d="" fill="#3E72B5" transform="translate(0,0)"/>
<path d="" fill="#406FB0" transform="translate(0,0)"/>
<path d="" fill="#3E6FAF" transform="translate(0,0)"/>
<path d="" fill="#4173BB" transform="translate(0,0)"/>
<path d="" fill="#4073B7" transform="translate(0,0)"/>
<path d="" fill="#3F74BC" transform="translate(0,0)"/>
<path d="" fill="#3F73B8" transform="translate(0,0)"/>
<path d="" fill="#3D74BA" transform="translate(0,0)"/>
<path d="" fill="#3F74B7" transform="translate(0,0)"/>
<path d="" fill="#4074BE" transform="translate(0,0)"/>
<path d="" fill="#3E74B7" transform="translate(0,0)"/>
<path d="" fill="#3E72BA" transform="translate(0,0)"/>
<path d="" fill="#3E73B9" transform="translate(0,0)"/>
<path d="" fill="#3D73B7" transform="translate(0,0)"/>
<path d="" fill="#3E73BC" transform="translate(0,0)"/>
<path d="" fill="#4172B6" transform="translate(0,0)"/>
<path d="" fill="#3E73B8" transform="translate(0,0)"/>
<path d="" fill="#3E73B6" transform="translate(0,0)"/>
<path d="" fill="#3E72B6" transform="translate(0,0)"/>
<path d="" fill="#3D72B9" transform="translate(0,0)"/>
<path d="" fill="#3E72B7" transform="translate(0,0)"/>
<path d="" fill="#3E72BC" transform="translate(0,0)"/>
<path d="" fill="#3E70AE" transform="translate(0,0)"/>
<path d="" fill="#3D73B7" transform="translate(0,0)"/>
<path d="" fill="#406FB0" transform="translate(0,0)"/>
<path d="" fill="#3D72B6" transform="translate(0,0)"/>
<path d="" fill="#4071B3" transform="translate(0,0)"/>
<path d="" fill="#4072B3" transform="translate(0,0)"/>
<path d="" fill="#3D71BA" transform="translate(0,0)"/>
<path d="" fill="#3F6FB2" transform="translate(0,0)"/>
<path d="" fill="#4173B3" transform="translate(0,0)"/>
<path d="" fill="#3F6FB3" transform="translate(0,0)"/>
<path d="" fill="#3E6FB0" transform="translate(0,0)"/>
<path d="" fill="#4273B2" transform="translate(0,0)"/>
<path d="" fill="#4170B1" transform="translate(0,0)"/>
<path d="" fill="#3F72B6" transform="translate(0,0)"/>
<path d="" fill="#3E6FB3" transform="translate(0,0)"/>
<path d="" fill="#3E72B6" transform="translate(0,0)"/>
<path d="" fill="#3F71B5" transform="translate(0,0)"/>
<path d="" fill="#3C72B7" transform="translate(0,0)"/>
<path d="" fill="#4175BB" transform="translate(0,0)"/>
<path d="" fill="#416FB2" transform="translate(0,0)"/>
<path d="" fill="#3E71B6" transform="translate(0,0)"/>
<path d="" fill="#3D70B3" transform="translate(0,0)"/>
<path d="" fill="#4170B2" transform="translate(0,0)"/>
<path d="" fill="#3F74BB" transform="translate(0,0)"/>
<path d="" fill="#3D71B6" transform="translate(0,0)"/>
<path d="" fill="#3E73BA" transform="translate(0,0)"/>
<path d="" fill="#3F70B1" transform="translate(0,0)"/>
<path d="" fill="#3F74BA" transform="translate(0,0)"/>
<path d="" fill="#3D72B7" transform="translate(0,0)"/>
<path d="" fill="#4073BA" transform="translate(0,0)"/>
<path d="" fill="#3D6CAF" transform="translate(0,0)"/>
<path d="" fill="#3F70B6" transform="translate(0,0)"/>
<path d="" fill="#3C71B6" transform="translate(0,0)"/>
<path d="" fill="#3E70B0" transform="translate(0,0)"/>
<path d="" fill="#3D71B7" transform="translate(0,0)"/>
<path d="" fill="#3C69AA" transform="translate(0,0)"/>
<path d="" fill="#4174BC" transform="translate(0,0)"/>
<path d="" fill="#3E71B5" transform="translate(0,0)"/>
<path d="" fill="#3C6BAC" transform="translate(0,0)"/>
<path d="" fill="#4070AE" transform="translate(0,0)"/>
<path d="" fill="#3C6DB2" transform="translate(0,0)"/>
<path d="" fill="#3E6FB2" transform="translate(0,0)"/>
<path d="" fill="#4173B3" transform="translate(0,0)"/>
<path d="" fill="#3C71B5" transform="translate(0,0)"/>
<path d="" fill="#3E71B9" transform="translate(0,0)"/>
<path d="" fill="#3E71B4" transform="translate(0,0)"/>
<path d="" fill="#3F73B7" transform="translate(0,0)"/>
<path d="" fill="#3D6EAF" transform="translate(0,0)"/>
<path d="" fill="#3E71B1" transform="translate(0,0)"/>
<path d="" fill="#3E71B4" transform="translate(0,0)"/>
<path d="" fill="#376AAD" transform="translate(0,0)"/>
<path d="" fill="#3C6EB1" transform="translate(0,0)"/>
<path d="" fill="#3C6DAF" transform="translate(0,0)"/>
<path d="" fill="#3E71B0" transform="translate(0,0)"/>
<path d="" fill="#3F6FB1" transform="translate(0,0)"/>
<path d="" fill="#34609B" transform="translate(0,0)"/>
<path d="" fill="#3C6BA8" transform="translate(0,0)"/>
<path d="" fill="#3968A7" transform="translate(0,0)"/>
<path d="" fill="#3768A9" transform="translate(0,0)"/>
<path d="" fill="#3766A4" transform="translate(0,0)"/>
<path d="" fill="#3A6CAB" transform="translate(0,0)"/>
<path d="" fill="#3A69AA" transform="translate(0,0)"/>
<path d="" fill="#3E6BAB" transform="translate(0,0)"/>
<path d="" fill="#3D6AAA" transform="translate(0,0)"/>
<path d="" fill="#3D6CAB" transform="translate(0,0)"/>
<path d="" fill="#3E6DAC" transform="translate(0,0)"/>
<path d="" fill="#3E6AA9" transform="translate(0,0)"/>
<path d="" fill="#3E6CAA" transform="translate(0,0)"/>
<path d="" fill="#3B6AA9" transform="translate(0,0)"/>
<path d="" fill="#3B6AAC" transform="translate(0,0)"/>
<path d="" fill="#3E6CAD" transform="translate(0,0)"/>
<path d="" fill="#3E6DAD" transform="translate(0,0)"/>
<path d="" fill="#3D6CAA" transform="translate(0,0)"/>
<path d="" fill="#3D6CAA" transform="translate(0,0)"/>
<path d="" fill="#3D6BAA" transform="translate(0,0)"/>
<path d="" fill="#3E6CAB" transform="translate(0,0)"/>
<path d="" fill="#3C69AA" transform="translate(0,0)"/>
<path d="" fill="#3E6BAB" transform="translate(0,0)"/>
<path d="" fill="#3C6BAB" transform="translate(0,0)"/>
<path d="" fill="#3F6CAD" transform="translate(0,0)"/>
<path d="" fill="#3E6BA9" transform="translate(0,0)"/>
<path d="" fill="#3C6BAB" transform="translate(0,0)"/>
<path d="" fill="#3F6DAE" transform="translate(0,0)"/>
<path d="" fill="#3F6EAE" transform="translate(0,0)"/>
<path d="" fill="#3E6AAA" transform="translate(0,0)"/>
<path d="" fill="#3B6BAB" transform="translate(0,0)"/>
<path d="" fill="#3E6BAC" transform="translate(0,0)"/>
<path d="" fill="#3D6CAC" transform="translate(0,0)"/>
<path d="" fill="#3E6CAB" transform="translate(0,0)"/>
<path d="" fill="#3E6BAC" transform="translate(0,0)"/>
<path d="" fill="#3D6BAD" transform="translate(0,0)"/>
<path d="" fill="#3E6CAB" transform="translate(0,0)"/>
<path d="" fill="#3C6BAC" transform="translate(0,0)"/>
<path d="" fill="#3E6CAA" transform="translate(0,0)"/>
<path d="" fill="#3F6CAC" transform="translate(0,0)"/>
<path d="" fill="#3C6CAC" transform="translate(0,0)"/>
<path d="" fill="#3D6DAD" transform="translate(0,0)"/>
<path d="" fill="#3E6DAC" transform="translate(0,0)"/>
<path d="" fill="#3F6BAD" transform="translate(0,0)"/>
<path d="" fill="#3F6DAE" transform="translate(0,0)"/>
<path d="" fill="#3B6AAB" transform="translate(0,0)"/>
<path d="" fill="#3B6BAC" transform="translate(0,0)"/>
<path d="" fill="#3864A3" transform="translate(0,0)"/>
<path d="" fill="#3865A5" transform="translate(0,0)"/>
<path d="" fill="#3769A5" transform="translate(0,0)"/>
<path d="" fill="#3768A8" transform="translate(0,0)"/>
<path d="" fill="#345E99" transform="translate(0,0)"/>
<path d="" fill="#335C93" transform="translate(0,0)"/>
<path d="" fill="#335E95" transform="translate(0,0)"/>
<path d="" fill="#3968A5" transform="translate(0,0)"/>
<path d="" fill="#3666A3" transform="translate(0,0)"/>
<path d="" fill="#31588F" transform="translate(0,0)"/>
<path d="" fill="#325A91" transform="translate(0,0)"/>
<path d="" fill="#335D94" transform="translate(0,0)"/>
<path d="" fill="#305588" transform="translate(0,0)"/>
<path d="" fill="#34629D" transform="translate(0,0)"/>
<path d="" fill="#325E97" transform="translate(0,0)"/>
<path d="" fill="#284872" transform="translate(0,0)"/>
<path d="" fill="#315A91" transform="translate(0,0)"/>
<path d="" fill="#294A75" transform="translate(0,0)"/>
<path d="" fill="#264870" transform="translate(0,0)"/>
<path d="" fill="#30598D" transform="translate(0,0)"/>
<path d="" fill="#2E578B" transform="translate(0,0)"/>
<path d="" fill="#203E61" transform="translate(0,0)"/>
<path d="" fill="#2B5385" transform="translate(0,0)"/>
<path d="" fill="#203C60" transform="translate(0,0)"/>
<path d="" fill="#2A4E7E" transform="translate(0,0)"/>
<path d="" fill="#1D3658" transform="translate(0,0)"/>
</svg>
